<svg width="40" height="40" fill="none" xmlns="http://www.w3.org/2000/svg"><path d="M20 0C8.953 0 0 8.953 0 20s8.953 20 20 20 20-8.953 20-20S31.047 0 20 0z" fill="#6A453B"/><path d="M32.027 26.013a6.064 6.064 0 0 1-6.058 6.058H14.03a6.064 6.064 0 0 1-6.058-6.058V14.076a6.064 6.064 0 0 1 6.058-6.058h11.94a6.064 6.064 0 0 1 6.058 6.058v11.937z" fill="#fff"/><path d="M25.969 10.646H14.03a3.431 3.431 0 0 0-3.43 3.43v11.893a3.431 3.431 0 0 0 3.43 3.43h11.94a3.431 3.431 0 0 0 3.43-3.43V14.076c0-1.871-1.56-3.43-3.43-3.43zM20 26.236a6.178 6.178 0 0 1-6.192-6.192A6.178 6.178 0 0 1 20 13.853a6.178 6.178 0 0 1 6.192 6.191c0 3.43-2.807 6.192-6.192 6.192zm6.37-11.091c-.802 0-1.47-.668-1.47-1.47 0-.802.668-1.47 1.47-1.47.802 0 1.47.668 1.47 1.47 0 .801-.668 1.47-1.47 1.47z" fill="#6A453B"/><path d="M20 16.481a3.574 3.574 0 0 0-3.564 3.563A3.574 3.574 0 0 0 20 23.608a3.574 3.574 0 0 0 3.564-3.564A3.574 3.574 0 0 0 20 16.481z" fill="#6A453B"/></svg>