<svg width="255" height="58" fill="none" xmlns="http://www.w3.org/2000/svg"><path d="M7.793 52.61c.66.173 1.161.47 1.506.893.344.413.517.932.517 1.557 0 .884-.335 1.57-1.005 2.06-.669.49-1.639.736-2.909.736H1V47.767h4.622c1.162 0 2.067.226 2.717.678.65.451.974 1.09.974 1.916 0 .529-.132.985-.398 1.37-.256.384-.63.677-1.122.879zm-4.903-.533h2.57c.62 0 1.092-.12 1.417-.36.325-.241.487-.596.487-1.067s-.162-.827-.487-1.067c-.325-.25-.797-.375-1.418-.375H2.89v2.869zm2.953 4.338c1.359 0 2.038-.5 2.038-1.5 0-.98-.68-1.47-2.038-1.47H2.89v2.97h2.953zM16.757 58c-1.043 0-1.988-.221-2.835-.663a5.13 5.13 0 0 1-1.979-1.86c-.472-.787-.708-1.676-.708-2.665 0-.99.24-1.879.723-2.667a5.025 5.025 0 0 1 1.979-1.845c.846-.451 1.791-.677 2.835-.677.847 0 1.62.144 2.318.432.7.289 1.29.707 1.772 1.254l-1.24 1.139c-.748-.788-1.669-1.182-2.762-1.182-.708 0-1.343.154-1.904.461a3.26 3.26 0 0 0-1.314 1.254c-.316.538-.473 1.148-.473 1.83 0 .683.157 1.293.473 1.83.315.539.753.962 1.314 1.27.56.297 1.196.446 1.904.446 1.093 0 2.014-.399 2.762-1.196l1.24 1.153a4.7 4.7 0 0 1-1.786 1.254c-.7.288-1.472.432-2.319.432zm13.64-1.715v1.57h-7.752V47.768h7.545v1.571h-5.626v2.623h4.991v1.542h-4.99v2.782h5.832zM41.402 58c-1.053 0-2.003-.221-2.85-.663a5.103 5.103 0 0 1-1.993-1.86c-.482-.797-.724-1.685-.724-2.665s.242-1.864.724-2.652a4.968 4.968 0 0 1 1.993-1.86c.847-.451 1.797-.677 2.85-.677 1.054 0 2.004.226 2.85.677a5 5 0 0 1 1.994 1.845c.482.788.723 1.677.723 2.666 0 .99-.241 1.879-.723 2.667a5.102 5.102 0 0 1-1.994 1.859c-.846.442-1.796.663-2.85.663zm0-1.643c.69 0 1.31-.149 1.86-.447.552-.307.985-.73 1.3-1.268a3.605 3.605 0 0 0 .473-1.83c0-.673-.158-1.278-.473-1.816a3.261 3.261 0 0 0-1.3-1.269c-.55-.307-1.17-.46-1.86-.46-.689 0-1.31.153-1.86.46a3.26 3.26 0 0 0-1.3 1.269 3.527 3.527 0 0 0-.472 1.816c0 .672.157 1.282.472 1.83.315.538.748.96 1.3 1.268.55.298 1.171.447 1.86.447zM57.927 58c-1.043 0-1.988-.221-2.835-.663a5.129 5.129 0 0 1-1.979-1.86c-.472-.787-.708-1.676-.708-2.665 0-.99.24-1.879.723-2.667a5.024 5.024 0 0 1 1.979-1.845c.846-.451 1.791-.677 2.835-.677.847 0 1.62.144 2.318.432.7.289 1.29.707 1.772 1.254l-1.24 1.139c-.748-.788-1.669-1.182-2.761-1.182-.71 0-1.344.154-1.905.461a3.26 3.26 0 0 0-1.314 1.254c-.316.538-.473 1.148-.473 1.83 0 .683.157 1.293.473 1.83.315.539.753.962 1.314 1.27.56.297 1.196.446 1.905.446 1.092 0 2.013-.399 2.761-1.196l1.24 1.153a4.7 4.7 0 0 1-1.786 1.254c-.7.288-1.472.432-2.319.432zM71.2 49.353h-3.425v8.503H65.87v-8.503h-3.411v-1.586H71.2v1.586zm5.909-1.586c.896 0 1.674.144 2.333.433.67.288 1.181.701 1.536 1.239.354.538.531 1.177.531 1.917 0 .73-.177 1.37-.531 1.917-.355.538-.866.95-1.536 1.24-.66.287-1.437.432-2.333.432h-2.333v2.91h-1.92V47.768h4.253zm-.089 5.592c.837 0 1.472-.173 1.905-.519.433-.346.65-.84.65-1.484s-.217-1.139-.65-1.485c-.433-.346-1.068-.518-1.905-.518h-2.244v4.006h2.244zm12.638 2.162H84.49l-1.02 2.335h-1.978l4.651-10.089h1.89L92.7 57.856h-2.008l-1.034-2.335zm-.635-1.47l-1.95-4.41-1.934 4.41h3.884zm14.447-6.284v10.089h-1.92v-4.324h-5.346v4.324h-1.92V47.767h1.92v4.165h5.346v-4.165h1.92zm10.652 8.518v1.57h-7.753V47.768h7.546v1.571h-5.626v2.623h4.991v1.542h-4.991v2.782h5.833zm13.028-3.675c.659.173 1.161.47 1.506.893.345.413.517.932.517 1.557 0 .884-.335 1.57-1.004 2.06-.67.49-1.639.736-2.909.736h-4.903V47.767h4.622c1.162 0 2.067.226 2.717.678.65.451.975 1.09.975 1.916 0 .529-.133.985-.399 1.37-.256.384-.63.677-1.122.879zm-4.903-.533h2.57c.62 0 1.092-.12 1.417-.36.325-.241.488-.596.488-1.067s-.163-.827-.488-1.067c-.325-.25-.797-.375-1.417-.375h-2.57v2.869zm2.954 4.338c1.358 0 2.037-.5 2.037-1.5 0-.98-.679-1.47-2.037-1.47h-2.954v2.97h2.954zm13.911-.13v1.57h-7.752V47.768h7.545v1.571h-5.626v2.623h4.991v1.542h-4.991v2.782h5.833zm10.97-8.518v10.089h-1.89v-8.503h-4.075l-.089 2.522c-.049 1.412-.167 2.56-.354 3.444-.187.875-.488 1.542-.901 2.004-.414.451-.985.677-1.713.677-.256 0-.605-.048-1.048-.144l.132-1.629c.128.039.276.058.443.058.601 0 1.024-.346 1.27-1.038.256-.701.414-1.801.473-3.3l.148-4.18h7.604zm2.923 0h1.89v7.163l5.552-7.163h1.787v10.089h-1.89v-7.149l-5.552 7.149h-1.787V47.767zm15.937 5.837h-1.92v4.252h-1.89V47.767h1.89v4.223h1.979l2.968-4.223h2.038l-3.529 4.886 3.662 5.203h-2.171l-3.027-4.252zM180.198 58c-1.053 0-2.003-.221-2.85-.663a5.103 5.103 0 0 1-1.993-1.86c-.483-.797-.724-1.685-.724-2.665s.241-1.864.724-2.652a4.968 4.968 0 0 1 1.993-1.86c.847-.451 1.797-.677 2.85-.677 1.053 0 2.003.226 2.85.677a4.994 4.994 0 0 1 1.993 1.845c.483.788.724 1.677.724 2.666 0 .99-.241 1.879-.724 2.667a5.096 5.096 0 0 1-1.993 1.859c-.847.442-1.797.663-2.85.663zm0-1.643c.689 0 1.309-.149 1.861-.447.551-.307.984-.73 1.299-1.268a3.605 3.605 0 0 0 .473-1.83c0-.673-.158-1.278-.473-1.816a3.261 3.261 0 0 0-1.299-1.269c-.552-.307-1.172-.46-1.861-.46-.689 0-1.309.153-1.86.46-.552.298-.985.72-1.3 1.269a3.526 3.526 0 0 0-.472 1.816c0 .672.157 1.282.472 1.83.315.538.748.96 1.3 1.268.551.298 1.171.447 1.86.447zm7.704-8.59h1.89v7.163l5.552-7.163h1.787v10.089h-1.89v-7.149l-5.552 7.149h-1.787V47.767zm4.592-.677c-.885 0-1.555-.178-2.008-.534-.443-.355-.669-.874-.679-1.556h1.344c.01.355.128.63.354.822.227.192.556.288.989.288.424 0 .754-.096.99-.288.246-.193.374-.467.384-.822h1.329c-.01.673-.246 1.191-.709 1.556-.453.356-1.117.534-1.994.534zM208.865 58c-1.043 0-1.989-.221-2.835-.663a5.133 5.133 0 0 1-1.979-1.86c-.472-.787-.709-1.676-.709-2.665 0-.99.242-1.879.724-2.667a5.022 5.022 0 0 1 1.979-1.845c.846-.451 1.791-.677 2.835-.677.846 0 1.619.144 2.318.432.699.289 1.29.707 1.772 1.254l-1.24 1.139c-.748-.788-1.669-1.182-2.762-1.182-.708 0-1.343.154-1.904.461a3.26 3.26 0 0 0-1.315 1.254c-.315.538-.472 1.148-.472 1.83 0 .683.157 1.293.472 1.83.315.539.753.962 1.315 1.27.561.297 1.196.446 1.904.446 1.093 0 2.014-.399 2.762-1.196l1.24 1.153a4.697 4.697 0 0 1-1.787 1.254c-.699.288-1.471.432-2.318.432zm13.273-8.647h-3.425v8.503h-1.905v-8.503h-3.411v-1.586h8.741v1.586zm9.408 6.932v1.57h-7.752V47.768h7.546v1.571h-5.626v2.623h4.991v1.542h-4.991v2.782h5.832zm11.296-8.518v10.089h-1.891v-8.503h-5.36v8.503h-1.89V47.767h9.141zm2.929 0h1.89v7.163l5.552-7.163H255v10.089h-1.89v-7.149l-5.552 7.149h-1.787V47.767z" fill="#057BAF"/><path d="M228.778 28.674c-.086-.568.043-1.092.451-1.529-.73-.261-1.547.153-2.278.7-.236-.438-.086-.765.043-1.485-.752.065-1.526.524-2.278 1.615.817-3.21-1.376-5.175-3.675-5.175-1.741 0-2.988 1.245-2.988 2.446 0 .393.15.96.387 1.288-.473.219-1.118.11-1.591-.13.237.894.753 1.44 1.827 1.047.065.677.28 1.223.731 1.594.473-.371.752-.939.731-1.594 1.01.502 1.569-.065 2.02-.873 0 0-2.02.502-2.02-.786 0-.59.193-1.136 1.053-1.136.752 0 1.784.655 1.698 2.184-.065 1.528-1.032 2.773-3.439 2.773-2.214 0-3.31-1.813-3.374-4.214-.065-2.162 1.074-3.778 3.267-3.778 2.923 0 9.543 4.28 12.143 4.28 1.956 0 3.031-1.769 3.031-3.515 0-1.092-.516-2.075-1.032-2.839.537-.742 1.032-1.747 1.032-2.838 0-1.747-1.096-3.516-3.031-3.516-2.6 0-9.242 4.28-12.143 4.28-2.193 0-3.332-1.616-3.267-3.777.064-2.38 1.182-4.214 3.374-4.214 2.407 0 3.374 1.244 3.439 2.773.064 1.528-.967 2.183-1.698 2.183-.86 0-1.053-.546-1.053-1.135 0-1.31 2.02-.787 2.02-.787-.451-.807-1.032-1.353-2.02-.873a1.912 1.912 0 0 0-.731-1.594c-.43.371-.666.917-.731 1.594-1.074-.393-1.59.153-1.827 1.048.473-.24 1.118-.35 1.591-.13-.237.327-.387.894-.387 1.287 0 1.201 1.247 2.446 2.988 2.446 2.299 0 4.513-1.965 3.675-5.175.752 1.114 1.526 1.55 2.278 1.616-.15-.699-.279-1.026-.043-1.485.731.546 1.548.96 2.278.699-.408-.437-.537-.96-.451-1.529 2.601 1.005 5.846-.764 6.212-4.323 0 0-3.095 2.009-5.503 2.009-4.363 0-5.975-1.616-9.844-1.616-2.514 0-4.126 1.485-4.879 2.948-.085-1.31-.386-1.812-1.418-2.598-.731.414-1.268 1.113-1.569 2.183-1.204-1.66-2.945-2.49-4.578-2.49-3.933 0-4.879 1.595-10.51 1.595-1.741 0-3.482-.677-5.116-2.096.774 3.843 4.041 5.35 6.427 4.126.322.786-.194 1.354-.452 1.966 1.311.021 1.892-.503 2.558-.896 0 0-.043.655-.258 1.267.838-.088 1.591-.48 1.956-1.267-.516 3.297 1.569 5.044 4.062 5.044 2.515 0 3.16-2.249 2.751-3.734a1.776 1.776 0 0 1 1.14.131c-.215-.939-.731-1.375-1.784-1.048-.086-.546-.366-.982-.731-1.353a2.726 2.726 0 0 0-.795 1.353c-.86-.327-1.548.24-1.698.94 0 0 1.827-.394 1.827 1.004 0 .545-.344.938-1.118.938-1.118 0-1.763-.633-1.763-2.248 0-1.31 1.075-2.599 3.504-2.599 1.999 0 3.74 2.03 3.697 3.887-.043 2.03-1.655 3.974-3.633 3.974-1.268 0-2.149-.131-2.923-.503-6.147-3.013-22.009-10.764-22.009-10.764-1.956-.96-3.245-1.354-5.309-1.354-3.288 0-5.867 2.075-6.319 5.961-.451-3.908-3.03-5.96-6.319-5.96-2.063 0-3.331.37-5.309 1.353 0 0-15.862 7.751-22.009 10.764-.774.372-1.633.503-2.923.503-1.977 0-3.589-1.944-3.632-3.974-.043-1.856 1.698-3.887 3.697-3.887 2.428 0 3.503 1.267 3.503 2.598 0 1.616-.645 2.25-1.762 2.25-.774 0-1.118-.372-1.118-.94 0-1.375 1.827-1.004 1.827-1.004-.151-.677-.838-1.244-1.698-.939a2.457 2.457 0 0 0-.795-1.353c-.344.37-.624.786-.731 1.353-1.053-.327-1.569.11-1.784 1.048.408-.196.774-.196 1.139-.13-.408 1.484.236 3.733 2.751 3.733 2.493 0 4.578-1.747 4.062-5.044.366.786 1.118 1.18 1.956 1.267-.236-.59-.258-1.267-.258-1.267.667.393 1.247.917 2.558.896-.279-.612-.774-1.18-.451-1.966 2.385 1.223 5.652-.283 6.426-4.126-1.612 1.397-3.374 2.096-5.115 2.096-5.653 0-6.599-1.594-10.51-1.594-1.612 0-3.375.83-4.579 2.489-.3-1.092-.838-1.79-1.569-2.183-.73.414-1.268 1.113-1.569 2.183-1.203-1.66-2.944-2.49-4.578-2.49-3.933 0-4.879 1.595-10.51 1.595-1.741 0-3.482-.677-5.115-2.096.774 3.843 4.041 5.35 6.426 4.126.323.786-.193 1.354-.451 1.966 1.311.021 1.891-.503 2.558-.896 0 0-.043.655-.258 1.267.838-.088 1.59-.48 1.956-1.267-.516 3.297 1.569 5.044 4.062 5.044 2.515 0 3.159-2.249 2.751-3.734a1.773 1.773 0 0 1 1.139.131c-.215-.939-.731-1.375-1.784-1.048-.086-.546-.365-.982-.731-1.353a2.734 2.734 0 0 0-.795 1.353c-.86-.327-1.547.24-1.698.94 0 0 1.827-.394 1.827 1.004 0 .545-.344.938-1.118.938-1.117 0-1.762-.633-1.762-2.248 0-1.31 1.075-2.599 3.503-2.599 1.999 0 3.74 2.03 3.697 3.887-.043 2.03-1.655 3.974-3.632 3.974-1.268 0-2.149-.131-2.923-.503-6.147-3.013-22.01-10.764-22.01-10.764-1.955-.96-3.245-1.354-5.308-1.354-3.289 0-5.868 2.075-6.32 5.961-.45-3.908-3.03-5.96-6.318-5.96-2.064 0-3.332.37-5.31 1.353 0 0-15.861 7.751-22.008 10.764-.774.372-1.634.503-2.923.503-1.978 0-3.59-1.944-3.633-3.974-.043-1.856 1.698-3.887 3.697-3.887 2.429 0 3.504 1.267 3.504 2.598 0 1.616-.645 2.25-1.763 2.25-.774 0-1.118-.372-1.118-.94 0-1.375 1.827-1.004 1.827-1.004-.15-.677-.838-1.244-1.698-.939a2.45 2.45 0 0 0-.795-1.353c-.344.37-.623.786-.73 1.353-1.054-.327-1.57.11-1.785 1.048.409-.196.774-.196 1.14-.13-.409 1.484.236 3.733 2.75 3.733 2.494 0 4.579-1.747 4.063-5.044.365.786 1.118 1.18 1.956 1.267-.237-.59-.258-1.267-.258-1.267.666.393 1.246.917 2.558.896-.28-.612-.774-1.18-.452-1.966 2.386 1.223 5.653-.283 6.427-4.126-1.612 1.397-3.375 2.096-5.116 2.096-5.652 0-6.598-1.594-10.51-1.594-1.612 0-3.374.83-4.578 2.489-.3-1.092-.838-1.79-1.569-2.183-1.032.786-1.332 1.288-1.419 2.598-.752-1.463-2.364-2.948-4.879-2.948-3.868 0-5.48 1.616-9.843 1.616-2.43 0-5.503-2.009-5.503-2.009.344 3.56 3.611 5.328 6.212 4.323.086.568-.043 1.092-.451 1.529.73.262 1.547-.153 2.278-.699.236.437.086.764-.043 1.485.752-.066 1.526-.524 2.278-1.616-.817 3.21 1.376 5.175 3.675 5.175 1.741 0 2.988-1.245 2.988-2.446 0-.393-.15-.96-.387-1.288.473-.218 1.118-.109 1.59.131-.236-.895-.752-1.44-1.826-1.048-.065-.677-.28-1.223-.731-1.594a1.911 1.911 0 0 0-.73 1.594c-1.011-.502-1.57.066-2.021.873 0 0 2.02-.502 2.02.787 0 .59-.193 1.135-1.053 1.135-.752 0-1.784-.655-1.698-2.184.065-1.528 1.032-2.772 3.439-2.772 2.214 0 3.31 1.812 3.374 4.214.065 2.161-1.074 3.777-3.267 3.777-2.923 0-9.543-4.28-12.143-4.28-1.956 0-3.03 1.769-3.03 3.516 0 1.091.515 2.074 1.03 2.838-.537.742-1.03 1.747-1.03 2.839 0 1.746 1.095 3.515 3.03 3.515 2.6 0 9.242-4.28 12.143-4.28 2.193 0 3.332 1.616 3.267 3.778-.064 2.38-1.182 4.214-3.374 4.214-2.407 0-3.374-1.245-3.439-2.773-.065-1.529.967-2.184 1.698-2.184.86 0 1.053.546 1.053 1.136 0 1.31-2.02.786-2.02.786.451.808 1.032 1.354 2.02.873a1.911 1.911 0 0 0 .73 1.594c.43-.371.667-.917.732-1.594 1.074.393 1.59-.153 1.827-1.048-.473.24-1.118.35-1.59.131.236-.327.386-.895.386-1.288 0-1.201-1.247-2.445-2.988-2.445-2.3 0-4.513 1.965-3.675 5.174-.752-1.113-1.526-1.55-2.278-1.616.15.7.28 1.027.043 1.485-.731-.546-1.548-.96-2.279-.699.409.437.538.961.452 1.529-2.6-1.005-5.846.764-6.212 4.323 0 0 3.095-2.009 5.503-2.009 4.363 0 5.975 1.616 9.843 1.616 2.515 0 4.127-1.485 4.88-2.947.086 1.31.386 1.812 1.418 2.598.73-.415 1.268-1.114 1.57-2.184 1.203 1.66 2.944 2.49 4.577 2.49 3.933 0 4.88-1.595 10.51-1.595 1.741 0 3.482.677 5.116 2.097-.774-3.843-4.041-5.35-6.427-4.127-.322-.786.194-1.354.452-1.965-1.312-.022-1.892.502-2.558.895 0 0 .043-.655.258-1.266-.838.087-1.59.48-1.956 1.266.516-3.297-1.57-5.044-4.062-5.044-2.515 0-3.16 2.25-2.751 3.734a1.77 1.77 0 0 1-1.14-.131c.215.939.731 1.375 1.784 1.048.086.546.366.983.731 1.354.409-.371.666-.852.795-1.354.86.328 1.548-.24 1.698-.939 0 0-1.827.393-1.827-1.004 0-.546.344-.94 1.118-.94 1.118 0 1.763.634 1.763 2.25 0 1.31-1.075 2.598-3.504 2.598-1.999 0-3.74-2.03-3.697-3.886.043-2.031 1.655-3.974 3.633-3.974 1.268 0 2.149.13 2.923.502 6.147 3.013 22.009 10.764 22.009 10.764 1.956.961 3.245 1.354 5.309 1.354 3.288 0 5.867-2.074 6.319-5.96.451 3.908 3.03 5.96 6.319 5.96 2.042 0 3.331-.371 5.309-1.354 0 0 15.862-7.75 22.009-10.764.774-.371 1.633-.502 2.923-.502 1.977 0 3.589 1.943 3.632 3.974.043 1.855-1.698 3.886-3.697 3.886-2.428 0-3.503-1.266-3.503-2.598 0-1.616.645-2.25 1.762-2.25.774 0 1.118.372 1.118.94 0 1.375-1.827 1.004-1.827 1.004.151.677.838 1.245 1.698.939.108.502.366.983.795 1.354.344-.371.624-.786.731-1.354 1.053.328 1.569-.11 1.784-1.048-.408.197-.774.197-1.139.131.408-1.485-.236-3.734-2.751-3.734-2.493 0-4.578 1.747-4.062 5.044-.366-.786-1.118-1.179-1.956-1.266.236.59.258 1.266.258 1.266-.667-.393-1.247-.917-2.558-.895.279.611.774 1.179.451 1.965-2.385-1.223-5.652.284-6.426 4.127 1.612-1.398 3.374-2.097 5.115-2.097 5.653 0 6.599 1.594 10.51 1.594 1.612 0 3.375-.83 4.578-2.489.301 1.092.839 1.79 1.569 2.184.731-.415 1.269-1.114 1.569-2.184 1.204 1.66 2.945 2.49 4.579 2.49 3.933 0 4.879-1.595 10.51-1.595 1.741 0 3.482.677 5.115 2.097-.774-3.843-4.041-5.35-6.426-4.127-.323-.786.193-1.354.451-1.965-1.311-.022-1.891.502-2.558.895 0 0 .043-.655.258-1.266-.838.087-1.59.48-1.956 1.266.516-3.297-1.569-5.044-4.062-5.044-2.515 0-3.159 2.25-2.751 3.734a1.773 1.773 0 0 1-1.139-.131c.215.939.731 1.375 1.784 1.048.086.546.365.983.731 1.354.408-.371.666-.852.795-1.354.86.328 1.547-.24 1.698-.939 0 0-1.827.393-1.827-1.004 0-.546.344-.94 1.118-.94 1.117 0 1.762.634 1.762 2.25 0 1.31-1.075 2.598-3.503 2.598-1.999 0-3.74-2.03-3.697-3.886.043-2.031 1.655-3.974 3.632-3.974 1.268 0 2.149.13 2.923.502 6.147 3.013 22.009 10.764 22.009 10.764 1.956.961 3.246 1.354 5.309 1.354 3.289 0 5.868-2.074 6.319-5.96.452 3.908 3.031 5.96 6.319 5.96 2.042 0 3.332-.371 5.309-1.354 0 0 15.862-7.75 22.009-10.764.774-.371 1.634-.502 2.923-.502 1.978 0 3.59 1.943 3.633 3.974.043 1.855-1.698 3.886-3.697 3.886-2.429 0-3.504-1.266-3.504-2.598 0-1.616.645-2.25 1.763-2.25.774 0 1.118.372 1.118.94 0 1.375-1.827 1.004-1.827 1.004.15.677.838 1.245 1.698.939.107.502.365.983.795 1.354.344-.371.623-.786.731-1.354 1.053.328 1.569-.11 1.784-1.048-.409.197-.774.197-1.14.131.409-1.485-.236-3.734-2.751-3.734-2.493 0-4.578 1.747-4.062 5.044-.365-.786-1.118-1.179-1.956-1.266.237.59.258 1.266.258 1.266-.666-.393-1.247-.917-2.558-.895.28.611.774 1.179.452 1.965-2.386-1.223-5.653.284-6.427 4.127 1.612-1.398 3.375-2.097 5.116-2.097 5.652 0 6.598 1.594 10.51 1.594 1.612 0 3.374-.83 4.578-2.489.301 1.092.838 1.79 1.569 2.184 1.032-.786 1.333-1.289 1.418-2.599.753 1.463 2.365 2.948 4.879 2.948 3.869 0 5.481-1.616 9.844-1.616 2.429 0 5.503 2.01 5.503 2.01-.366-3.56-3.611-5.328-6.212-4.324zm2.859-12.227c.967.786-.903 3.056-.967 3.144.064.065 1.912 2.358.967 3.144-1.182.96-5.846-1.725-9.264-3.144 3.418-1.42 8.103-4.105 9.264-3.144zM24.592 22.713c-.967-.786.902-3.057.967-3.144-.065-.066-1.913-2.358-.967-3.144 1.182-.96 5.846 1.725 9.263 3.144-3.417 1.42-8.103 4.105-9.263 3.144zm18.355 1.245l-.129.393c-.473-2.075-1.247-3.821-2.837-4.782 1.59-.96 2.364-2.707 2.837-4.782l.129.393c.258 2.293 1.999 3.909 2.88 4.389-.881.48-2.6 2.096-2.88 4.389zm35.915 7.336c-1.139 0-2.213-.284-3.202-.764-4.707-2.25-19.71-9.433-22.87-10.961 3.139-1.528 18.141-8.712 22.87-10.96 1.01-.481 2.063-.765 3.202-.765 2.88 0 3.89 2.686 3.89 4.214 0 1.834-1.375 3.69-3.073 3.69-1.075 0-1.74-.59-1.74-1.463 0-2.074 1.719-1.943 2.815-1.528-.56-1.288-1.59-2.03-2.644-1.834-.107-.72-.43-1.42-1.14-2.053-.622.502-1.095 1.114-1.117 2.053-1.655-.415-2.364.72-2.75 1.834 1.224-.35 2.621-.59 2.621 1.528 0 1.528.258 2.751 1.247 3.45-1.311.044-6.491.175-6.491.175-1.934.087-1.892-2.642-1.311-4.39-2.236.656-3.46 2.01-3.138 5.11-.301-.764-1.01-1.55-2.365-1.55-1.826 0-3.847 1.507-4.449 2.489.602.983 2.623 2.49 4.45 2.49 1.354 0 2.041-.809 2.364-1.551-.301 3.122.902 4.454 3.138 5.11-.58-1.748-.645-4.477 1.31-4.39 0 0 5.18.131 6.492.175-.989.699-1.247 1.922-1.247 3.45 0 2.118-1.397 1.878-2.622 1.528.387 1.114 1.096 2.227 2.751 1.834.022.94.495 1.55 1.118 2.053.71-.633 1.053-1.332 1.139-2.053 1.075.197 2.085-.546 2.644-1.834-1.096.415-2.816.546-2.816-1.528 0-.873.645-1.463 1.741-1.463 1.72 0 3.074 1.856 3.074 3.69 0 1.528-1.01 4.214-3.89 4.214zm6.642-5.306c-.344-2.554-1.913-5.305-4.664-6.419 2.75-1.092 4.32-3.865 4.664-6.42.344 2.555 1.913 5.307 4.664 6.42-2.773 1.114-4.342 3.887-4.664 6.42zm9.844 4.542c-1.01.48-2.064.764-3.203.764-2.88 0-3.89-2.686-3.89-4.214 0-1.834 1.375-3.69 3.073-3.69 1.075 0 1.741.59 1.741 1.463 0 2.074-1.72 1.943-2.815 1.528.559 1.288 1.59 2.03 2.643 1.834.108.72.43 1.42 1.14 2.053.623-.502 1.096-1.114 1.117-2.053 1.655.415 2.365-.72 2.751-1.834-1.225.35-2.622.59-2.622-1.528 0-1.529-.258-2.751-1.246-3.45 1.31-.044 6.491-.175 6.491-.175 1.934-.087 1.891 2.642 1.311 4.39 2.235-.656 3.46-2.01 3.138-5.11.301.764 1.01 1.55 2.364 1.55 1.827 0 3.847-1.506 4.449-2.489-.602-.982-2.622-2.49-4.449-2.49-1.354 0-2.042.809-2.364 1.551.301-3.122-.903-4.454-3.138-5.11.58 1.748.644 4.477-1.311 4.39 0 0-5.18-.131-6.491-.175.988-.699 1.246-1.921 1.246-3.45 0-2.118 1.397-1.878 2.622-1.528-.386-1.114-1.096-2.227-2.75-1.834-.022-.94-.495-1.55-1.118-2.053-.71.633-1.054 1.332-1.14 2.053-1.074-.197-2.084.546-2.643 1.834 1.096-.415 2.815-.546 2.815 1.528 0 .873-.644 1.463-1.74 1.463-1.72 0-3.074-1.856-3.074-3.69 0-1.528 1.01-4.214 3.89-4.214 1.14 0 2.214.284 3.203.764 4.707 2.25 19.709 9.433 22.869 10.961-3.138 1.55-18.141 8.734-22.87 10.96zm32.841-6.572c-.021.065-.043.13-.064.218-.022-.066-.043-.153-.065-.218-.257-2.293-1.998-3.909-2.88-4.389.882-.48 2.623-2.074 2.88-4.389.022-.065.043-.13.065-.218.021.066.043.153.064.218.258 2.293 1.999 3.909 2.881 4.389-.882.48-2.623 2.096-2.881 4.389zm35.894 7.336c-1.139 0-2.214-.284-3.202-.764a11062.21 11062.21 0 0 1-22.869-10.961c3.138-1.528 18.14-8.712 22.869-10.96 1.01-.481 2.063-.765 3.202-.765 2.88 0 3.891 2.686 3.891 4.214 0 1.834-1.376 3.69-3.074 3.69-1.075 0-1.741-.59-1.741-1.463 0-2.074 1.72-1.943 2.816-1.528-.559-1.288-1.591-2.03-2.644-1.834-.107-.72-.43-1.42-1.139-2.053-.623.502-1.096 1.114-1.118 2.053-1.655-.415-2.364.72-2.751 1.834 1.225-.35 2.622-.59 2.622 1.528 0 1.528.258 2.751 1.247 3.45-1.311.044-6.491.175-6.491.175-1.935.087-1.892-2.642-1.311-4.39-2.236.656-3.461 2.01-3.138 5.11-.301-.764-1.01-1.55-2.365-1.55-1.826 0-3.847 1.507-4.449 2.489.602.983 2.623 2.49 4.449 2.49 1.355 0 2.042-.809 2.365-1.551-.301 3.122.902 4.454 3.138 5.11-.581-1.748-.645-4.477 1.311-4.39 0 0 5.18.131 6.491.175-.989.699-1.247 1.922-1.247 3.45 0 2.118-1.397 1.878-2.622 1.528.387 1.114 1.096 2.227 2.751 1.834.022.94.495 1.55 1.118 2.053.709-.633 1.053-1.332 1.139-2.053 1.075.197 2.085-.546 2.644-1.834-1.096.415-2.816.546-2.816-1.528 0-.873.645-1.463 1.741-1.463 1.719 0 3.074 1.856 3.074 3.69 0 1.528-1.011 4.214-3.891 4.214zm6.642-5.306c-.344-2.554-1.913-5.305-4.664-6.419 2.751-1.092 4.32-3.865 4.664-6.42.344 2.555 1.913 5.307 4.664 6.42-2.751 1.114-4.32 3.887-4.664 6.42zm9.865 4.542c-1.01.48-2.063.764-3.202.764-2.88 0-3.891-2.686-3.891-4.214 0-1.834 1.376-3.69 3.074-3.69 1.075 0 1.741.59 1.741 1.463 0 2.074-1.72 1.943-2.816 1.528.559 1.288 1.591 2.03 2.644 1.834.107.72.43 1.42 1.139 2.053.623-.502 1.096-1.114 1.118-2.053 1.655.415 2.364-.72 2.751-1.834-1.225.35-2.622.59-2.622-1.528 0-1.529-.258-2.751-1.247-3.45 1.311-.044 6.491-.175 6.491-.175 1.934-.087 1.891 2.642 1.311 4.39 2.235-.656 3.461-2.01 3.138-5.11.301.764 1.01 1.55 2.364 1.55 1.827 0 3.848-1.506 4.45-2.489-.602-.982-2.623-2.49-4.45-2.49-1.354 0-2.041.809-2.364 1.551.301-3.122-.903-4.454-3.138-5.11.58 1.748.645 4.477-1.311 4.39 0 0-5.18-.131-6.491-.175.989-.699 1.247-1.921 1.247-3.45 0-2.118 1.397-1.878 2.622-1.528-.387-1.114-1.096-2.227-2.751-1.834-.022-.94-.495-1.55-1.118-2.053-.709.633-1.053 1.332-1.139 2.053-1.075-.197-2.085.546-2.644 1.834 1.096-.415 2.816-.546 2.816 1.528 0 .873-.645 1.463-1.741 1.463-1.72 0-3.074-1.856-3.074-3.69 0-1.528 1.011-4.214 3.891-4.214 1.139 0 2.213.284 3.202.764 4.707 2.25 19.709 9.433 22.869 10.961-3.16 1.55-18.162 8.734-22.869 10.96zm32.82-6.157l-.129-.393c-.279-2.315-1.998-3.93-2.88-4.39.882-.48 2.623-2.073 2.88-4.388l.129-.393c.473 2.074 1.247 3.821 2.838 4.782-1.591.96-2.365 2.707-2.838 4.782z" fill="#FFF4D7"/><path d="M68.76 15.923l-3.03-.371c-.086-.022-.194-.044-.28-.088l-4.449-2.86a.62.62 0 0 0-.515-.087l-2.386.676a.637.637 0 0 1-.753-.349l-.58-1.2-.064-.11-.043-.087-4.406-7.883c-.194-.327-.602-.436-.903-.218L48.019 5.53c-.15.087-.322.13-.472.087l-.366-.066a.663.663 0 0 1-.516-.764l.022-.153a.654.654 0 0 0-.559-.764l-3.288-.415a.668.668 0 0 1-.56-.524l-.3-1.419a.654.654 0 0 0-.408-.48L39.035.049a.543.543 0 0 0-.451 0L25.602 4.744a.66.66 0 0 0-.172 1.135l.73.59c.388.305.302.938-.171 1.135l-1.59.633a.589.589 0 0 0-.323.284L23.41 9.7a.662.662 0 0 0 .193.873l.817.568c.494.328.322 1.114-.28 1.2l-10.166 1.464a.529.529 0 0 1-.365-.066L7.87 10.944a.607.607 0 0 0-.58.022l-5.524 2.97a.648.648 0 0 0-.323.393L.025 19.372c-.065.219 0 .48.15.634l4.815 5a.614.614 0 0 0 .795.087l1.741-1.113c.129-.088.301-.11.451-.088l2.257.393a.654.654 0 0 1 .538.655l-.022 3.013a.65.65 0 0 1-.516.634l-3.052.611c-.43.087-.666.59-.43.982l3.224 5.568c.13.24.409.35.667.306l1.977-.35c.15-.021.322 0 .451.088l1.849 1.179c.387.24.881.022.967-.415l1.655-8.188a.673.673 0 0 1 .387-.48l5.201-2.27a.651.651 0 0 1 .881.458l.71 3.384c.021.087.064.175.107.262l1.612 2.205c.108.153.28.24.473.262l2.73.197c.107 0 .215.043.3.109l3.418 2.183a.6.6 0 0 1 .236.284l.667 1.529a.645.645 0 0 0 .365.349l2.321.895.516.218c.28.11.58.022.752-.218l.452-.655a.658.658 0 0 1 .172-.174l2.987-2.01a.638.638 0 0 1 .215-.087l1.849-.436a.434.434 0 0 1 .236 0l1.827.284a.626.626 0 0 0 .537-.175l1.333-1.245a.595.595 0 0 1 .559-.153l1.784.372 6.878 1.594a.647.647 0 0 0 .752-.437l.645-1.965a.754.754 0 0 0 0-.437l-.946-2.73c-.129-.392.129-.829.537-.873l2.859-.349c.43-.044.688-.524.516-.917-.065-.175-.086-.35 0-.524l1.203-2.926a.69.69 0 0 1 .58-.415l2.816-.065c.215 0 .409-.11.516-.306l3.224-4.956a.614.614 0 0 0 .043-.633l-.559-1.245a.582.582 0 0 0-.473-.35z" fill="#057BAF"/><path d="M65.644 19.744c-.28 0-.537.13-.71.305l-16.377-6.026 9.8 2.183c.065.48.474.874.968.874.537 0 .989-.459.989-1.004a1.01 1.01 0 0 0-.99-1.005c-.3 0-.558.131-.73.35l-12.917-2.883a3.53 3.53 0 0 0-.15-.83L51.2 9.7a.975.975 0 0 0 .753.371c.537 0 .988-.458.988-1.004s-.45-1.005-.988-1.005c-.495 0-.882.35-.968.83l-5.803 2.053c-.623-1.092-1.762-1.813-3.095-1.813-.172 0-.344.022-.516.044l-2.686-5.568a1.05 1.05 0 0 0 .258-.677c0-.546-.452-1.004-.989-1.004a1.004 1.004 0 1 0-.022 2.009l2.623 5.436c-.086.022-.15.066-.215.11l-1.376-1.463a.898.898 0 0 0 .086-.415c0-.546-.451-1.005-.989-1.005-.537 0-.988.459-.988 1.005 0 .546.451 1.004.988 1.004.108 0 .194-.022.28-.043l1.29 1.375a3.35 3.35 0 0 0-.796.939l-8.79-2.445a.98.98 0 0 0-.968-.852c-.537 0-.988.458-.988 1.004s.451 1.005.988 1.005c.301 0 .58-.153.753-.371l8.661 2.401a3.545 3.545 0 0 0-.15.72l-31.273 3.56a.994.994 0 0 0-.817-.459c-.537 0-.988.459-.988 1.005 0 .546.451 1.004.988 1.004a.971.971 0 0 0 .946-.742l25.878-2.948-11.155 2.27a.972.972 0 0 0-.838-.48c-.538 0-.989.459-.989 1.005 0 .546.451 1.004.989 1.004.43 0 .817-.305.945-.698l12.596-2.555-24.524 7.642a1.015 1.015 0 0 0-.667-.262c-.537 0-.988.458-.988 1.004s.451 1.005.988 1.005c.538 0 .968-.437.99-.983l28.134-8.777a.313.313 0 0 1 .043.13L10.105 30.858a1.01 1.01 0 0 0-.494-.152c-.537 0-.989.458-.989 1.004s.452 1.004.989 1.004c.537 0 .989-.458.989-1.004 0-.066 0-.11-.022-.175l28.586-16.747c.172.24.344.459.559.655l-9.2 12.118c-.085-.021-.171-.043-.257-.043-.537 0-.989.458-.989 1.004s.452 1.005.989 1.005c.537 0 .989-.459.989-1.005a1 1 0 0 0-.108-.437l9.22-12.14c.173.11.366.197.581.262l-4.9 15.088a.985.985 0 0 0-.839.983c0 .545.452 1.004.99 1.004a1.008 1.008 0 0 0 .644-1.769l4.47-13.755-2.75 16.048c-.409.131-.71.502-.71.96 0 .547.451 1.005.989 1.005.537 0 .989-.458.989-1.004 0-.35-.194-.677-.473-.852l3.009-17.511c.107 0 .193-.022.3-.022l1.355 13.538a.994.994 0 0 0-.473.851c0 .546.451 1.004.989 1.004a1.008 1.008 0 0 0 .3-1.965l-1.354-13.624 1.376 4.41a1.008 1.008 0 0 0 .71 1.703c.537 0 .988-.458.988-1.004 0-.524-.408-.96-.924-1.004l-1.354-4.214 8.747 15.982a1.053 1.053 0 0 0-.215.612c0 .545.452 1.004.99 1.004.537 0 .988-.459.988-1.004 0-.546-.451-1.005-.989-1.005h-.043l-7.974-14.563 8.21 10.982a.946.946 0 0 0-.128.48c0 .547.451 1.005.988 1.005.538 0 .989-.458.989-1.004s-.451-1.005-.989-1.005a.58.58 0 0 0-.193.022l-9.565-12.817c.215-.305.387-.655.495-1.048L64.72 20.77c.043.502.473.917.967.917.537 0 .989-.459.989-1.004a1.053 1.053 0 0 0-1.032-.94z" fill="#fff"/><path d="M78.11 22.015v5.545h-3.245V12.08H82c1.032 0 1.935.218 2.73.633a4.258 4.258 0 0 1 1.784 1.769c.408.764.623 1.637.623 2.576 0 1.267-.322 2.293-.967 3.079-.645.808-1.44 1.31-2.364 1.506l3.417 5.895h-3.718l-2.988-5.545-2.407.022zm4.987-6.485a2.423 2.423 0 0 0-1.655-.612h-3.396v4.28h3.417c.645 0 1.204-.197 1.655-.611.451-.394.666-.918.666-1.529 0-.633-.215-1.135-.645-1.528h-.042zm19.537-3.472v2.838H95.09v3.363h7.372v2.838H95.09V24.7h7.544v2.86h-10.79V12.058h10.79zm5.137 3.668a7.6 7.6 0 0 1 2.944-2.795c1.226-.655 2.601-.982 4.084-.982 1.483 0 2.751.306 3.783.939a7.287 7.287 0 0 1 2.536 2.467l-2.686 1.485a4.592 4.592 0 0 0-1.527-1.42 4.096 4.096 0 0 0-2.084-.567c-.925 0-1.763.218-2.472.655-.731.458-1.311 1.048-1.72 1.812a5.432 5.432 0 0 0-.623 2.577c0 .96.215 1.812.623 2.576a4.62 4.62 0 0 0 1.72 1.812c.709.437 1.547.655 2.472.655.644 0 1.289-.109 1.87-.35.601-.24 1.074-.501 1.44-.829v-1.877h-4.063v-2.839h7.265v5.917a8.809 8.809 0 0 1-2.837 2.162c-1.096.502-2.321.764-3.654.764-1.504 0-2.88-.328-4.084-1.005-1.225-.654-2.213-1.615-2.944-2.86-.731-1.223-1.096-2.62-1.096-4.192 0-1.616.365-3.013 1.096-4.236l-.043.131zm21.687-3.668v15.48h-3.246v-15.48h3.246zm5.523 3.646a7.557 7.557 0 0 1 2.859-2.86c1.204-.699 2.558-1.048 4.084-1.048 1.526 0 2.901.35 4.105 1.048a7.407 7.407 0 0 1 2.859 2.86c.687 1.201 1.031 2.577 1.031 4.105 0 1.529-.344 2.904-1.031 4.105a7.651 7.651 0 0 1-2.838 2.86c-1.225.7-2.6 1.048-4.105 1.048-1.504 0-2.858-.349-4.062-1.048a7.495 7.495 0 0 1-2.837-2.86c-.688-1.2-1.032-2.576-1.032-4.105 0-1.528.344-2.904 1.032-4.105h-.065zm10.962 1.594a4.715 4.715 0 0 0-1.634-1.812c-.709-.459-1.526-.677-2.407-.677-.903 0-1.719.219-2.407.655-.709.459-1.268 1.048-1.634 1.812-.386.765-.58 1.616-.58 2.577 0 .96.194 1.812.58 2.576.387.765.925 1.376 1.634 1.813.709.436 1.504.655 2.407.655s1.72-.219 2.429-.677a4.275 4.275 0 0 0 1.633-1.813c.387-.764.581-1.615.581-2.576 0-.96-.194-1.812-.581-2.576l-.021.043zm11.821 10.241h-3.245V12.058h3.331l7.072 10.022V12.058h3.245v15.48h-3.138l-7.265-10.393V27.54zm14.078-15.481h3.697l3.805 6.223 3.739-6.223h3.697l-5.824 9.149v6.332h-3.246v-6.332l-5.868-9.149zm16.701 12.532c.365-.37.795-.567 1.311-.567.494 0 .946.197 1.311.568a1.87 1.87 0 0 1 0 2.664c-.365.37-.795.567-1.311.567-.495 0-.946-.196-1.311-.567a1.828 1.828 0 0 1-.559-1.332c.021-.502.193-.96.559-1.332zm11.262-1.79v4.76h-3.245V12.058h3.245v6.922l5.395-6.922h3.998l-6.061 7.27 6.469 8.21h-3.998l-4.621-6.2-1.182 1.462zm20.225-7.838h-7.2v-2.904h11.456V14.7l-7.2 9.935h7.35v2.904H212.83v-2.664l7.2-9.913z" fill="#057BAF"/><path d="M42.195 16.425c2.018 0 3.654-1.662 3.654-3.712 0-2.05-1.636-3.712-3.654-3.712s-3.654 1.662-3.654 3.712c0 2.05 1.636 3.712 3.654 3.712zM9.632 33.019c.653 0 1.183-.538 1.183-1.2 0-.664-.53-1.202-1.183-1.202-.652 0-1.182.538-1.182 1.201s.53 1.201 1.182 1.201zm20.634-3.275c.653 0 1.182-.538 1.182-1.201s-.53-1.201-1.182-1.201c-.653 0-1.182.538-1.182 1.2 0 .664.53 1.202 1.182 1.202zm5.804 3.712c.652 0 1.181-.538 1.181-1.201 0-.664-.529-1.201-1.182-1.201-.653 0-1.182.538-1.182 1.2 0 .664.53 1.202 1.182 1.202zm2.793 2.401a1.19 1.19 0 0 0 1.182-1.2c0-.664-.529-1.201-1.182-1.201a1.19 1.19 0 0 0-1.182 1.2c0 .664.53 1.201 1.182 1.201zm5.589-3.93c.652 0 1.182-.537 1.182-1.2 0-.664-.53-1.201-1.182-1.201-.653 0-1.183.537-1.183 1.2 0 .664.53 1.201 1.183 1.201zm9.242 1.965a1.19 1.19 0 0 0 1.182-1.2c0-.664-.53-1.201-1.182-1.201a1.19 1.19 0 0 0-1.182 1.2c0 .664.529 1.201 1.182 1.201zm1.074-4.148c.653 0 1.182-.538 1.182-1.201s-.529-1.201-1.182-1.201c-.653 0-1.182.538-1.182 1.2 0 .664.53 1.202 1.182 1.202zm10.747-7.86c.653 0 1.182-.538 1.182-1.201 0-.664-.53-1.201-1.182-1.201a1.19 1.19 0 0 0-1.182 1.2c0 .664.53 1.202 1.182 1.202zm-6.233-4.804c.653 0 1.182-.538 1.182-1.201s-.53-1.2-1.182-1.2a1.19 1.19 0 0 0-1.182 1.2c0 .663.53 1.2 1.182 1.2zm-7.308-6.987c.653 0 1.182-.538 1.182-1.201s-.529-1.2-1.182-1.2a1.19 1.19 0 0 0-1.182 1.2c0 .663.53 1.2 1.182 1.2zm-6.448 12.445a1.19 1.19 0 0 0 1.182-1.2c0-.664-.529-1.201-1.182-1.201a1.19 1.19 0 0 0-1.182 1.2c0 .664.53 1.201 1.182 1.201zM38.218 8.783c.653 0 1.183-.538 1.183-1.201s-.53-1.2-1.183-1.2c-.652 0-1.182.537-1.182 1.2 0 .663.53 1.2 1.182 1.2zm0-4.585c.653 0 1.183-.538 1.183-1.201s-.53-1.201-1.183-1.201c-.652 0-1.182.538-1.182 1.2 0 .664.53 1.202 1.182 1.202zm-9.027 5.677c.653 0 1.182-.538 1.182-1.201 0-.664-.529-1.201-1.182-1.201a1.19 1.19 0 0 0-1.182 1.2c0 .664.53 1.202 1.182 1.202zM6.623 17.517c.653 0 1.182-.538 1.182-1.201s-.529-1.201-1.182-1.201a1.19 1.19 0 0 0-1.182 1.2c0 .664.53 1.202 1.182 1.202zm14.616.218c.653 0 1.182-.538 1.182-1.2 0-.664-.53-1.202-1.182-1.202-.653 0-1.182.538-1.182 1.201s.529 1.201 1.182 1.201zM9.632 23.849c.653 0 1.183-.538 1.183-1.201 0-.664-.53-1.201-1.183-1.201-.652 0-1.182.537-1.182 1.2 0 .664.53 1.202 1.182 1.202zM240.32 34.154a7.76 7.76 0 0 0 1.161-1.222c.129-.175.064-.197-.108-.219-.838-.022-1.676.022-2.514-.043-1.14-.088-2.128-.503-3.01-1.223a6.308 6.308 0 0 1-1.461-1.66c-.537-.873-.709-1.855-.688-2.86a5.757 5.757 0 0 1 .623-2.467c.71-1.398 1.784-2.315 3.353-2.533.731-.087 1.44-.043 2.128.24.924.371 1.462 1.092 1.655 2.075.108.502.108 1.026.043 1.528-.043.262-.064.284-.279.131-.688-.437-1.419-.655-2.214-.459-.86.197-1.44.743-1.698 1.616-.236.808-.064 1.529.473 2.162.322.393.731.655 1.182.851.881.393 1.805.677 2.773.634 1.031-.044 1.934-.393 2.708-1.114 1.16-1.07 1.719-2.445 1.913-3.996.129-1.07-.194-2.03-.731-2.947-.215-.372-.215-.393.215-.437 1.311-.131 2.364.48 2.88 1.725.021.065.021.153.107.153s.086-.11.108-.153c.344-.83.924-1.463 1.59-2.03 1.118-.94 2.451-1.398 3.869-1.616a3.32 3.32 0 0 0 .602-.131c-.215-.044-.408-.066-.623-.11-1.268-.174-2.451-.59-3.482-1.331-.838-.612-1.548-1.354-1.956-2.337-.022-.043-.022-.13-.108-.13-.086.021-.086.108-.129.174-.322.764-.838 1.288-1.633 1.572-.451.153-.903.153-1.354.11-.28-.023-.301-.088-.151-.328.43-.72.753-1.507.817-2.38.043-.699-.107-1.354-.301-2.01-.279-.894-.709-1.702-1.354-2.379-.774-.83-1.719-1.332-2.837-1.376-1.397-.065-2.687.306-3.804 1.158-1.397 1.048-1.096 3.275.494 3.952.924.393 1.784.174 2.601-.306.279-.153.279-.153.322.153.065.59.043 1.157-.129 1.725-.322 1.135-1.096 1.79-2.192 2.009-.946.196-1.87.13-2.751-.284a4.296 4.296 0 0 1-1.698-1.42c-1.032-1.506-1.333-3.166-.903-4.956.279-1.092.967-1.943 1.784-2.664 1.247-1.113 2.73-1.463 4.342-1.397.408.022.816 0 1.246 0 .108 0 .215 0 .344-.066-.279-.393-.559-.742-.903-1.048-.752-.677-1.569-1.288-2.493-1.725a10.763 10.763 0 0 0-1.59-.59c-3.74 4.608-5.61 9.936-5.61 15.984 0 6.026 1.87 11.353 5.61 15.982a6.688 6.688 0 0 0 1.117-.37 8.247 8.247 0 0 0 2.644-1.617z" fill="#FEC50C"/></svg>