<svg width="255" height="60" fill="none" xmlns="http://www.w3.org/2000/svg"><path d="M76.656 17.18l-3.379-.4c-.095-.024-.215-.048-.311-.095l-4.96-3.086a.71.71 0 0 0-.575-.094l-2.66.73a.718.718 0 0 1-.838-.377l-.647-1.296-.072-.117-.048-.095-4.912-8.504c-.216-.354-.671-.471-1.007-.236l-3.714 2.356c-.167.094-.36.141-.527.094l-.407-.07a.717.717 0 0 1-.575-.825L52.048 5a.71.71 0 0 0-.623-.824l-3.666-.448a.735.735 0 0 1-.623-.565L46.8 1.63a.713.713 0 0 0-.455-.518L43.517.053a.624.624 0 0 0-.503 0L28.542 5.118a.701.701 0 0 0-.192 1.225l.815.636c.431.33.335 1.013-.192 1.225l-1.773.683a.65.65 0 0 0-.36.307l-.742 1.272a.7.7 0 0 0 .215.942l.91.613c.552.353.36 1.201-.31 1.295l-11.334 1.579a.605.605 0 0 1-.408-.071l-6.397-3.015a.696.696 0 0 0-.647.023l-6.158 3.204c-.168.094-.312.236-.36.424L.028 20.902a.708.708 0 0 0 .167.683l5.368 5.395a.7.7 0 0 0 .886.094l1.941-1.201c.144-.095.336-.118.503-.095l2.516.425c.36.07.6.353.6.706l-.025 3.251c0 .33-.24.613-.575.683l-3.402.66c-.48.094-.743.636-.48 1.06l3.595 6.008c.144.259.455.376.743.33l2.204-.378a.75.75 0 0 1 .503.095l2.06 1.272c.432.259.983.023 1.08-.448l1.844-8.834a.732.732 0 0 1 .431-.518l5.8-2.45c.407-.165.886.07.982.494l.79 3.652c.024.094.072.188.12.282l1.797 2.38c.12.165.312.259.527.282l3.043.213c.12 0 .24.047.336.117l3.81 2.356c.12.07.215.189.263.306l.743 1.65a.71.71 0 0 0 .407.376l2.588.966.575.236a.714.714 0 0 0 .839-.236l.503-.706a.723.723 0 0 1 .192-.189l3.33-2.167a.726.726 0 0 1 .24-.095l2.06-.47a.5.5 0 0 1 .264 0l2.037.306a.714.714 0 0 0 .6-.189l1.485-1.343a.678.678 0 0 1 .623-.165l1.988.4 7.668 1.72a.724.724 0 0 0 .839-.47l.719-2.12a.79.79 0 0 0 0-.472L64.1 31.81a.72.72 0 0 1 .6-.942l3.186-.377a.712.712 0 0 0 .575-.99c-.072-.188-.096-.376 0-.565l1.342-3.157a.767.767 0 0 1 .647-.447l3.139-.07a.65.65 0 0 0 .575-.33l3.594-5.348a.644.644 0 0 0 .048-.683l-.623-1.343c-.072-.189-.287-.354-.527-.377z" fill="#057BAF"/><path d="M73.182 21.302c-.312 0-.6.142-.791.33L54.132 15.13l10.927 2.356a1.1 1.1 0 0 0 1.078.942c.599 0 1.102-.494 1.102-1.083 0-.59-.503-1.084-1.102-1.084a1.03 1.03 0 0 0-.815.377l-14.4-3.11a3.705 3.705 0 0 0-.168-.895l6.326-2.167c.191.235.503.4.838.4.6 0 1.102-.495 1.102-1.083 0-.59-.503-1.084-1.102-1.084-.55 0-.982.377-1.078.895l-6.47 2.215a3.97 3.97 0 0 0-3.45-1.956c-.192 0-.383.024-.575.047L43.35 3.893c.167-.188.287-.448.287-.73 0-.59-.503-1.084-1.102-1.084-.599 0-1.102.495-1.102 1.084 0 .589.48 1.06 1.078 1.083l2.923 5.866a.754.754 0 0 0-.24.118l-1.533-1.578a.942.942 0 0 0 .096-.448c0-.589-.503-1.084-1.102-1.084-.6 0-1.102.495-1.102 1.084 0 .59.503 1.084 1.102 1.084.12 0 .215-.024.311-.047l1.438 1.484c-.36.283-.647.612-.887 1.013l-9.8-2.639a1.08 1.08 0 0 0-1.078-.918c-.599 0-1.102.494-1.102 1.083 0 .59.503 1.084 1.102 1.084a1.1 1.1 0 0 0 .839-.4l9.656 2.59a3.715 3.715 0 0 0-.168.778l-34.863 3.84a1.116 1.116 0 0 0-.91-.494c-.6 0-1.103.494-1.103 1.083 0 .59.503 1.084 1.102 1.084.503 0 .935-.33 1.054-.801l28.85-3.18-12.436 2.45a1.091 1.091 0 0 0-.935-.519c-.599 0-1.102.495-1.102 1.084 0 .589.503 1.084 1.102 1.084.48 0 .911-.33 1.055-.754l14.041-2.757-27.34 8.246a1.153 1.153 0 0 0-.743-.283c-.599 0-1.102.495-1.102 1.084 0 .589.503 1.083 1.102 1.083a1.1 1.1 0 0 0 1.103-1.06l31.365-9.47a.33.33 0 0 1 .048.141L11.266 33.294a1.154 1.154 0 0 0-.552-.165c-.599 0-1.102.494-1.102 1.083 0 .59.503 1.084 1.102 1.084.6 0 1.103-.495 1.103-1.084 0-.07 0-.118-.024-.188l31.868-18.07c.192.26.384.495.623.707L34.03 29.736c-.096-.023-.192-.047-.288-.047-.599 0-1.102.495-1.102 1.084 0 .589.503 1.083 1.102 1.083.6 0 1.102-.494 1.102-1.083 0-.165-.048-.33-.12-.471l10.28-13.099c.192.118.407.212.647.283l-5.463 16.279c-.527.07-.935.518-.935 1.06 0 .589.503 1.083 1.103 1.083.599 0 1.102-.494 1.102-1.083 0-.33-.144-.613-.384-.825l4.984-14.841-3.067 17.315c-.455.141-.79.542-.79 1.036 0 .59.503 1.084 1.102 1.084.599 0 1.102-.495 1.102-1.084 0-.377-.216-.73-.527-.918l3.354-18.894c.12 0 .216-.024.336-.024l1.51 14.607a1.066 1.066 0 0 0-.528.918c0 .59.504 1.084 1.103 1.084s1.102-.495 1.102-1.084a1.1 1.1 0 0 0-.767-1.036l-1.51-14.7 1.534 4.758a1.08 1.08 0 0 0-.312.754c0 .589.504 1.084 1.103 1.084s1.102-.495 1.102-1.084c0-.565-.455-1.037-1.03-1.084l-1.51-4.546 9.752 17.244c-.144.189-.24.424-.24.66 0 .589.504 1.084 1.103 1.084s1.102-.495 1.102-1.084c0-.59-.503-1.084-1.102-1.084h-.048l-8.89-15.713 9.154 11.85a.996.996 0 0 0-.144.518c0 .589.503 1.084 1.102 1.084.599 0 1.102-.495 1.102-1.084 0-.59-.503-1.084-1.102-1.084-.072 0-.144 0-.216.024L50.275 15.93c.24-.33.43-.707.55-1.13l21.326 7.609c.048.541.527.99 1.079.99.599 0 1.102-.496 1.102-1.085-.048-.541-.551-1.013-1.15-1.013z" fill="#fff"/><path d="M91.871 23.752v5.984h-3.618V13.033h7.956c1.15 0 2.156.236 3.042.684.863.447 1.534 1.083 1.989 1.908.456.824.695 1.767.695 2.78 0 1.366-.359 2.473-1.078 3.321-.719.872-1.606 1.414-2.636 1.626l3.81 6.36h-4.145l-3.33-5.983-2.684.023zm5.56-6.996c-.504-.424-1.103-.66-1.846-.66H91.8v4.617h3.81c.718 0 1.341-.212 1.844-.66.504-.423.743-.989.743-1.648 0-.683-.24-1.225-.719-1.65h-.047zm21.78-3.746v3.063h-8.41V19.7h8.219v3.063h-8.219v3.887h8.41v3.086h-12.028V13.01h12.028zm5.727 3.958a8.364 8.364 0 0 1 3.283-3.016c1.366-.707 2.899-1.06 4.552-1.06 1.654 0 3.067.33 4.218 1.013a8.015 8.015 0 0 1 2.827 2.662l-2.995 1.602a5.058 5.058 0 0 0-1.701-1.531 4.69 4.69 0 0 0-2.325-.613c-1.03 0-1.964.236-2.755.707-.815.495-1.462 1.13-1.917 1.955a5.708 5.708 0 0 0-.695 2.78c0 1.037.24 1.956.695 2.78a5.05 5.05 0 0 0 1.917 1.956c.791.47 1.725.706 2.755.706a5.64 5.64 0 0 0 2.085-.377c.671-.259 1.198-.541 1.605-.895v-2.026h-4.528v-3.063h8.099v6.385a9.801 9.801 0 0 1-3.163 2.332c-1.222.542-2.588.825-4.074.825-1.677 0-3.211-.354-4.552-1.084a8.206 8.206 0 0 1-3.283-3.086c-.815-1.32-1.222-2.827-1.222-4.523 0-1.744.407-3.251 1.222-4.57l-.048.14zm24.177-3.958v16.703h-3.618V13.01h3.618zm6.158 3.934a8.29 8.29 0 0 1 3.187-3.086c1.342-.754 2.851-1.13 4.553-1.13 1.701 0 3.234.376 4.576 1.13 1.366.754 2.42 1.767 3.187 3.086.767 1.296 1.15 2.78 1.15 4.43 0 1.648-.383 3.132-1.15 4.428a8.394 8.394 0 0 1-3.163 3.086c-1.366.754-2.899 1.13-4.576 1.13-1.678 0-3.187-.376-4.529-1.13-1.342-.754-2.396-1.767-3.163-3.086-.767-1.296-1.15-2.78-1.15-4.429 0-1.649.383-3.133 1.15-4.429h-.072zm12.22 1.72c-.431-.825-1.054-1.46-1.821-1.955-.79-.495-1.701-.73-2.683-.73-1.007 0-1.917.235-2.684.706-.791.495-1.414 1.13-1.821 1.955-.431.825-.647 1.744-.647 2.78 0 1.037.216 1.955.647 2.78.431.825 1.03 1.484 1.821 1.955.791.471 1.677.707 2.684.707 1.006 0 1.917-.235 2.707-.73a4.67 4.67 0 0 0 1.821-1.956c.432-.824.647-1.743.647-2.78 0-1.036-.215-1.955-.647-2.78l-.024.048zm13.179 11.049h-3.618V13.01h3.714l7.883 10.813V13.01h3.618v16.703h-3.498l-8.099-11.214v11.214zm15.695-16.703h4.121l4.241 6.714 4.169-6.714h4.122l-6.494 9.87v6.833h-3.618V22.88l-6.541-9.871z" fill="#057BAF"/><path d="M214.984 26.532c.408-.4.887-.612 1.462-.612.551 0 1.054.212 1.462.612.407.4.623.872.623 1.437 0 .542-.216 1.037-.623 1.437-.408.4-.887.613-1.462.613a2.052 2.052 0 0 1-1.462-.613c-.407-.4-.623-.871-.623-1.437a2.082 2.082 0 0 1 .623-1.437zM227.54 24.6v5.136h-3.618V13.01h3.618v7.468l6.015-7.468h4.456l-6.757 7.845 7.213 8.858h-4.457l-5.152-6.69-1.318 1.578zm22.548-8.457h-8.027V13.01h12.771v2.85l-8.027 10.72H255v3.133h-12.939v-2.875l8.027-10.695zM47.04 17.722c2.25 0 4.073-1.794 4.073-4.005 0-2.212-1.823-4.005-4.073-4.005-2.25 0-4.073 1.793-4.073 4.005 0 2.211 1.823 4.005 4.073 4.005zM10.738 35.626c.728 0 1.318-.58 1.318-1.296 0-.716-.59-1.296-1.318-1.296-.727 0-1.317.58-1.317 1.296 0 .716.59 1.296 1.317 1.296zm23.003-3.534c.728 0 1.318-.58 1.318-1.296 0-.715-.59-1.295-1.318-1.295-.728 0-1.318.58-1.318 1.295 0 .716.59 1.296 1.318 1.296zm6.469 4.005c.729 0 1.319-.58 1.319-1.296 0-.715-.59-1.296-1.318-1.296-.728 0-1.318.58-1.318 1.296 0 .716.59 1.296 1.318 1.296zm3.116 2.591c.728 0 1.318-.58 1.318-1.295 0-.716-.59-1.296-1.318-1.296-.728 0-1.318.58-1.318 1.296 0 .715.59 1.295 1.318 1.295zm6.23-4.24c.728 0 1.318-.58 1.318-1.296 0-.715-.59-1.296-1.318-1.296-.728 0-1.318.58-1.318 1.296 0 .716.59 1.296 1.318 1.296zm10.304 2.12c.727 0 1.317-.58 1.317-1.296 0-.715-.59-1.295-1.318-1.295-.728 0-1.318.58-1.318 1.295 0 .716.59 1.296 1.318 1.296zm1.197-4.476c.728 0 1.318-.58 1.318-1.296 0-.715-.59-1.295-1.318-1.295-.728 0-1.318.58-1.318 1.295 0 .716.59 1.296 1.318 1.296zm11.981-8.481c.728 0 1.318-.58 1.318-1.296 0-.715-.59-1.295-1.318-1.295-.728 0-1.318.58-1.318 1.295 0 .716.59 1.296 1.318 1.296zm-6.948-5.183c.727 0 1.317-.58 1.317-1.295 0-.716-.59-1.296-1.318-1.296-.728 0-1.318.58-1.318 1.296 0 .715.59 1.295 1.318 1.295zm-8.148-7.538c.728 0 1.318-.58 1.318-1.296 0-.716-.59-1.296-1.318-1.296-.728 0-1.318.58-1.318 1.296 0 .716.59 1.296 1.318 1.296zm-7.188 13.428c.728 0 1.318-.58 1.318-1.296 0-.715-.59-1.296-1.318-1.296-.728 0-1.318.58-1.318 1.296 0 .716.59 1.296 1.318 1.296zM42.607 9.476c.728 0 1.318-.58 1.318-1.295 0-.716-.59-1.296-1.318-1.296-.728 0-1.318.58-1.318 1.296 0 .715.59 1.295 1.318 1.295zm0-4.947c.728 0 1.318-.58 1.318-1.296 0-.715-.59-1.295-1.318-1.295-.728 0-1.318.58-1.318 1.295 0 .716.59 1.296 1.318 1.296zm-10.064 6.125c.728 0 1.318-.58 1.318-1.296 0-.715-.59-1.295-1.318-1.295-.728 0-1.318.58-1.318 1.295 0 .716.59 1.296 1.318 1.296zM7.384 18.9c.728 0 1.318-.58 1.318-1.296 0-.716-.59-1.296-1.318-1.296-.728 0-1.318.58-1.318 1.296 0 .715.59 1.296 1.318 1.296zm16.294.235c.727 0 1.317-.58 1.317-1.296 0-.715-.59-1.295-1.317-1.295-.728 0-1.318.58-1.318 1.295 0 .716.59 1.296 1.318 1.296zm-12.94 6.596c.728 0 1.318-.58 1.318-1.295 0-.716-.59-1.296-1.318-1.296-.727 0-1.317.58-1.317 1.296 0 .715.59 1.295 1.317 1.295z" fill="#FEC50C"/><path d="M7.793 54.61c.66.173 1.161.47 1.506.893.344.413.517.932.517 1.557 0 .884-.335 1.57-1.005 2.06-.669.49-1.639.736-2.909.736H1V49.767h4.622c1.162 0 2.067.226 2.717.678.65.451.974 1.09.974 1.916 0 .529-.132.985-.398 1.37-.256.384-.63.677-1.122.879zm-4.903-.533h2.57c.62 0 1.092-.12 1.417-.36.325-.241.487-.596.487-1.067s-.162-.827-.487-1.067c-.325-.25-.797-.375-1.418-.375H2.89v2.869zm2.953 4.338c1.359 0 2.038-.5 2.038-1.5 0-.98-.68-1.47-2.038-1.47H2.89v2.97h2.953zM16.757 60c-1.043 0-1.988-.221-2.835-.663a5.13 5.13 0 0 1-1.979-1.86c-.472-.787-.708-1.676-.708-2.665 0-.99.24-1.879.723-2.667a5.025 5.025 0 0 1 1.979-1.845c.846-.451 1.791-.677 2.835-.677.847 0 1.62.144 2.318.432.7.289 1.29.707 1.772 1.254l-1.24 1.139c-.748-.788-1.669-1.182-2.762-1.182-.708 0-1.343.154-1.904.461a3.26 3.26 0 0 0-1.314 1.254c-.316.538-.473 1.148-.473 1.83 0 .683.157 1.293.473 1.83.315.539.753.962 1.314 1.27.56.297 1.196.446 1.904.446 1.093 0 2.014-.399 2.762-1.196l1.24 1.153a4.7 4.7 0 0 1-1.786 1.254c-.7.288-1.472.432-2.319.432zm13.64-1.715v1.57h-7.752V49.768h7.545v1.571h-5.626v2.623h4.991v1.542h-4.99v2.782h5.832zM41.402 60c-1.053 0-2.003-.221-2.85-.663a5.103 5.103 0 0 1-1.993-1.86c-.482-.797-.724-1.685-.724-2.665s.242-1.864.724-2.652a4.968 4.968 0 0 1 1.993-1.86c.847-.451 1.797-.677 2.85-.677 1.054 0 2.004.226 2.85.677a5 5 0 0 1 1.994 1.845c.482.788.723 1.677.723 2.666 0 .99-.241 1.879-.723 2.667a5.102 5.102 0 0 1-1.994 1.859c-.846.442-1.796.663-2.85.663zm0-1.643c.69 0 1.31-.149 1.86-.447.552-.307.985-.73 1.3-1.268a3.605 3.605 0 0 0 .473-1.83c0-.673-.158-1.278-.473-1.816a3.261 3.261 0 0 0-1.3-1.269c-.55-.307-1.17-.46-1.86-.46-.689 0-1.31.153-1.86.46a3.26 3.26 0 0 0-1.3 1.269 3.527 3.527 0 0 0-.472 1.816c0 .672.157 1.282.472 1.83.315.538.748.96 1.3 1.268.55.298 1.171.447 1.86.447zM57.927 60c-1.043 0-1.988-.221-2.835-.663a5.129 5.129 0 0 1-1.979-1.86c-.472-.787-.708-1.676-.708-2.665 0-.99.24-1.879.723-2.667a5.024 5.024 0 0 1 1.979-1.845c.846-.451 1.791-.677 2.835-.677.847 0 1.62.144 2.318.432.7.289 1.29.707 1.772 1.254l-1.24 1.139c-.748-.788-1.669-1.182-2.761-1.182-.71 0-1.344.154-1.905.461a3.26 3.26 0 0 0-1.314 1.254c-.316.538-.473 1.148-.473 1.83 0 .683.157 1.293.473 1.83.315.539.753.962 1.314 1.27.56.297 1.196.446 1.905.446 1.092 0 2.013-.399 2.761-1.196l1.24 1.153a4.7 4.7 0 0 1-1.786 1.254c-.7.288-1.472.432-2.319.432zM71.2 51.353h-3.425v8.503H65.87v-8.503h-3.411v-1.586H71.2v1.586zm5.909-1.586c.896 0 1.674.144 2.333.433.67.288 1.181.701 1.536 1.239.354.538.531 1.177.531 1.917 0 .73-.177 1.37-.531 1.917-.355.538-.866.95-1.536 1.24-.66.287-1.437.432-2.333.432h-2.333v2.91h-1.92V49.768h4.253zm-.089 5.592c.837 0 1.472-.173 1.905-.519.433-.346.65-.84.65-1.484s-.217-1.139-.65-1.485c-.433-.346-1.068-.518-1.905-.518h-2.244v4.006h2.244zm12.638 2.162H84.49l-1.02 2.335h-1.978l4.651-10.089h1.89L92.7 59.856h-2.008l-1.034-2.335zm-.635-1.47l-1.95-4.41-1.934 4.41h3.884zm14.447-6.284v10.089h-1.92v-4.324h-5.346v4.324h-1.92V49.767h1.92v4.165h5.346v-4.165h1.92zm10.652 8.518v1.57h-7.753V49.768h7.546v1.571h-5.626v2.623h4.991v1.542h-4.991v2.782h5.833zm13.028-3.675c.659.173 1.161.47 1.506.893.345.413.517.932.517 1.557 0 .884-.335 1.57-1.004 2.06-.67.49-1.639.736-2.909.736h-4.903V49.767h4.622c1.162 0 2.067.226 2.717.678.65.451.975 1.09.975 1.916 0 .529-.133.985-.399 1.37-.256.384-.63.677-1.122.879zm-4.903-.533h2.57c.62 0 1.092-.12 1.417-.36.325-.241.488-.596.488-1.067s-.163-.827-.488-1.067c-.325-.25-.797-.375-1.417-.375h-2.57v2.869zm2.954 4.338c1.358 0 2.037-.5 2.037-1.5 0-.98-.679-1.47-2.037-1.47h-2.954v2.97h2.954zm13.911-.13v1.57h-7.752V49.768h7.545v1.571h-5.626v2.623h4.991v1.542h-4.991v2.782h5.833zm10.97-8.518v10.089h-1.89v-8.503h-4.075l-.089 2.522c-.049 1.412-.167 2.56-.354 3.444-.187.875-.488 1.542-.901 2.004-.414.451-.985.677-1.713.677-.256 0-.605-.048-1.048-.144l.132-1.629c.128.039.276.058.443.058.601 0 1.024-.346 1.27-1.038.256-.701.414-1.801.473-3.3l.148-4.18h7.604zm2.923 0h1.89v7.163l5.552-7.163h1.787v10.089h-1.89v-7.149l-5.552 7.149h-1.787V49.767zm15.937 5.837h-1.92v4.252h-1.89V49.767h1.89v4.223h1.979l2.968-4.223h2.038l-3.529 4.886 3.662 5.203h-2.171l-3.027-4.252zM180.198 60c-1.053 0-2.003-.221-2.85-.663a5.103 5.103 0 0 1-1.993-1.86c-.483-.797-.724-1.685-.724-2.665s.241-1.864.724-2.652a4.968 4.968 0 0 1 1.993-1.86c.847-.451 1.797-.677 2.85-.677 1.053 0 2.003.226 2.85.677a4.994 4.994 0 0 1 1.993 1.845c.483.788.724 1.677.724 2.666 0 .99-.241 1.879-.724 2.667a5.096 5.096 0 0 1-1.993 1.859c-.847.442-1.797.663-2.85.663zm0-1.643c.689 0 1.309-.149 1.861-.447.551-.307.984-.73 1.299-1.268a3.605 3.605 0 0 0 .473-1.83c0-.673-.158-1.278-.473-1.816a3.261 3.261 0 0 0-1.299-1.269c-.552-.307-1.172-.46-1.861-.46-.689 0-1.309.153-1.86.46-.552.298-.985.72-1.3 1.269a3.526 3.526 0 0 0-.472 1.816c0 .672.157 1.282.472 1.83.315.538.748.96 1.3 1.268.551.298 1.171.447 1.86.447zm7.704-8.59h1.89v7.163l5.552-7.163h1.787v10.089h-1.89v-7.149l-5.552 7.149h-1.787V49.767zm4.592-.677c-.885 0-1.555-.178-2.008-.534-.443-.355-.669-.874-.679-1.556h1.344c.01.355.128.63.354.822.227.192.556.288.989.288.424 0 .754-.096.99-.288.246-.193.374-.467.384-.822h1.329c-.01.673-.246 1.191-.709 1.556-.453.356-1.117.534-1.994.534zM208.865 60c-1.043 0-1.988-.221-2.835-.663a5.133 5.133 0 0 1-1.979-1.86c-.472-.787-.709-1.676-.709-2.665 0-.99.242-1.879.724-2.667a5.022 5.022 0 0 1 1.979-1.845c.846-.451 1.791-.677 2.835-.677.846 0 1.619.144 2.318.432.699.289 1.29.707 1.772 1.254l-1.24 1.139c-.748-.788-1.669-1.182-2.762-1.182-.708 0-1.343.154-1.904.461a3.26 3.26 0 0 0-1.315 1.254c-.315.538-.472 1.148-.472 1.83 0 .683.157 1.293.472 1.83.315.539.753.962 1.315 1.27.561.297 1.196.446 1.904.446 1.093 0 2.014-.399 2.762-1.196l1.24 1.153a4.697 4.697 0 0 1-1.787 1.254c-.699.288-1.471.432-2.318.432zm13.273-8.647h-3.425v8.503h-1.905v-8.503h-3.411v-1.586h8.741v1.586zm9.408 6.932v1.57h-7.752V49.768h7.546v1.571h-5.626v2.623h4.991v1.542h-4.991v2.782h5.832zm11.296-8.518v10.089h-1.891v-8.503h-5.36v8.503h-1.89V49.767h9.141zm2.929 0h1.89v7.163l5.552-7.163H255v10.089h-1.89v-7.149l-5.552 7.149h-1.787V49.767z" fill="#057BAF"/></svg>