<svg width="40" height="40" fill="none" xmlns="http://www.w3.org/2000/svg"><path d="M40 20c0 11.047-8.953 20-20 20S0 31.047 0 20 8.953 0 20 0s20 8.953 20 20z" fill="#61A8DE"/><path d="M28.062 11.002l-20.49 7.974c-.668.267-.623 1.202.045 1.425l5.212 1.514 1.96 6.147c.222.624 1.024.847 1.47.357l2.672-2.762 5.3 3.875c.669.49 1.56.134 1.738-.668l3.474-16.704c.223-.801-.579-1.47-1.38-1.158zM25.48 14.7l-9.488 8.42a.719.719 0 0 0-.178.31l-.356 3.297c0 .09-.179.134-.179 0l-1.514-4.855c-.09-.223 0-.445.223-.58l11.225-6.948c.267-.178.534.178.267.356z" fill="#fff"/></svg>