<svg width="40" height="40" fill="none" xmlns="http://www.w3.org/2000/svg"><path d="M40 20c0 11.047-8.953 20-20 20S0 31.047 0 20 8.953 0 20 0s20 8.953 20 20z" fill="#4D76A1"/><path fill-rule="evenodd" clip-rule="evenodd" d="M19.243 28.775h1.559s.49-.045.713-.312c.222-.223.222-.668.222-.668s-.044-2.094.936-2.405c.98-.312 2.182 2.049 3.519 2.94.98.668 1.737.534 1.737.534l3.519-.044s1.826-.134.98-1.56c-.09-.133-.49-1.069-2.628-3.029-2.183-2.049-1.916-1.692.757-5.256 1.603-2.138 2.271-3.474 2.049-4.009-.178-.534-1.381-.4-1.381-.4l-3.964.044s-.312-.044-.49.09c-.223.133-.357.445-.357.445s-.623 1.648-1.47 3.073c-1.737 2.985-2.45 3.163-2.761 2.94-.668-.445-.49-1.737-.49-2.673 0-2.895.445-4.098-.847-4.41-.445-.088-.757-.177-1.826-.177-1.425 0-2.583 0-3.296.356-.446.223-.802.713-.58.757.268.045.847.178 1.159.58.4.534.4 1.78.4 1.78s.224 3.386-.534 3.832c-.534.311-1.247-.312-2.85-3.03-.802-1.38-1.426-2.94-1.426-2.94s-.134-.267-.312-.445a1.662 1.662 0 0 0-.623-.222l-3.742.044s-.579 0-.757.267c-.178.223 0 .669 0 .669s2.94 6.86 6.28 10.334c3.03 3.073 6.504 2.895 6.504 2.895z" fill="#fff"/></svg>