<svg width="40" height="40" viewBox="0 0 40 40" fill="none" xmlns="http://www.w3.org/2000/svg">
<path d="M20 0C8.95323 0 0 8.95323 0 20C0 31.0468 8.95323 40 20 40C31.0468 40 40 31.0468 40 20C40 8.95323 31.0468 0 20 0Z" fill="#6A453B"/>
<path d="M32.0267 26.0134C32.0267 29.3541 29.3096 32.0713 25.9688 32.0713H14.0312C10.6904 32.0713 7.97327 29.3541 7.97327 26.0134V14.0757C7.97327 10.735 10.6904 8.01782 14.0312 8.01782H25.9688C29.3096 8.01782 32.0267 10.735 32.0267 14.0757V26.0134Z" fill="white"/>
<path d="M25.9688 10.6458H14.0312C12.1158 10.6458 10.6013 12.2048 10.6013 14.0756V25.9687C10.6013 27.8841 12.1603 29.3985 14.0312 29.3985H25.9688C27.8842 29.3985 29.3986 27.8395 29.3986 25.9687V14.0756C29.3986 12.2048 27.8396 10.6458 25.9688 10.6458ZM20 26.236C16.5701 26.236 13.8084 23.4743 13.8084 20.0444C13.8084 16.6146 16.5701 13.8529 20 13.8529C23.4298 13.8529 26.1915 16.6146 26.1915 20.0444C26.1915 23.4743 23.3853 26.236 20 26.236ZM26.3697 15.1446C25.5679 15.1446 24.8998 14.4765 24.8998 13.6747C24.8998 12.8729 25.5679 12.2048 26.3697 12.2048C27.1715 12.2048 27.8396 12.8729 27.8396 13.6747C27.8396 14.4765 27.1715 15.1446 26.3697 15.1446Z" fill="#6A453B"/>
<path d="M20 16.481C18.0401 16.481 16.4365 18.0845 16.4365 20.0444C16.4365 22.0043 18.0401 23.6079 20 23.6079C21.9599 23.6079 23.5635 22.0043 23.5635 20.0444C23.5635 18.0845 21.9599 16.481 20 16.481Z" fill="#6A453B"/>
</svg>
