<svg width="255" height="60" viewBox="0 0 255 60" fill="none" xmlns="http://www.w3.org/2000/svg">
<path d="M76.656 17.1797L73.2775 16.7793C73.1816 16.7557 73.0618 16.7321 72.966 16.685L68.006 13.5989C67.8382 13.4811 67.6226 13.4576 67.4309 13.5047L64.7712 14.235C64.4357 14.3292 64.0763 14.1643 63.9326 13.858L63.2856 12.5624L63.2137 12.4446L63.1658 12.3503L58.2537 3.84586C58.0381 3.49249 57.5828 3.3747 57.2474 3.61028L53.5334 5.96609C53.3656 6.06032 53.1739 6.10744 53.0062 6.06032L52.5989 5.98965C52.2155 5.91897 51.9519 5.54204 52.0238 5.16511L52.0477 5.00021C52.1196 4.59972 51.8321 4.22279 51.4248 4.17567L47.7587 3.72807C47.4472 3.68095 47.2076 3.46893 47.1357 3.16267L46.8002 1.6314C46.7523 1.39582 46.5846 1.20735 46.345 1.11312L43.5175 0.0530057C43.3498 -0.0176686 43.1821 -0.0176686 43.0143 0.0530057L28.5417 5.118C28.0146 5.30646 27.8948 5.98965 28.35 6.34302L29.1647 6.97909C29.596 7.3089 29.5002 7.99208 28.973 8.20411L27.1999 8.88729C27.0561 8.93441 26.9123 9.0522 26.8405 9.19355L26.0977 10.4657C25.906 10.7955 26.0018 11.196 26.3133 11.408L27.2238 12.0205C27.7749 12.3739 27.5833 13.222 26.9123 13.3162L15.5786 14.8946C15.4349 14.9182 15.2911 14.8946 15.1713 14.8239L8.77363 11.8085C8.55798 11.7143 8.31837 11.7143 8.12668 11.8321L1.96862 15.036C1.80089 15.1302 1.65713 15.2715 1.6092 15.46L0.0277564 20.9019C-0.0441275 21.1375 0.0277564 21.4202 0.195486 21.5851L5.56282 26.9799C5.80243 27.2155 6.16185 27.2626 6.44939 27.0741L8.39025 25.8727C8.53402 25.7784 8.72571 25.7549 8.89344 25.7784L11.4094 26.2025C11.7688 26.2732 12.0084 26.5559 12.0084 26.9092L11.9844 30.1603C11.9844 30.4901 11.7448 30.7728 11.4094 30.8434L8.00687 31.5031C7.52765 31.5973 7.26407 32.1391 7.52765 32.5632L11.1218 38.5705C11.2656 38.8296 11.5771 38.9474 11.8646 38.9003L14.0691 38.5234C14.2368 38.4998 14.4285 38.5234 14.5723 38.6176L16.6329 39.8897C17.0642 40.1489 17.6154 39.9133 17.7112 39.4421L19.5562 30.6079C19.6041 30.3723 19.7719 30.1838 19.9875 30.0896L25.7862 27.6395C26.1935 27.4746 26.6727 27.7102 26.7686 28.1343L27.5593 31.7858C27.5833 31.88 27.6312 31.9742 27.6791 32.0685L29.4762 34.4478C29.596 34.6127 29.7877 34.707 30.0033 34.7305L33.0464 34.9425C33.1662 34.9425 33.286 34.9897 33.3819 35.0603L37.1917 37.4161C37.3115 37.4868 37.4074 37.6046 37.4553 37.7224L38.1981 39.3715C38.27 39.5364 38.4138 39.6777 38.6055 39.7484L41.1933 40.7143L41.7684 40.9499C42.0798 41.0677 42.4153 40.9734 42.607 40.7143L43.1102 40.0075C43.1581 39.9369 43.23 39.8662 43.3019 39.8191L46.6325 37.6517C46.7044 37.6046 46.7763 37.5811 46.8721 37.5575L48.9328 37.0863C49.0286 37.0628 49.1245 37.0628 49.1964 37.0863L51.2331 37.3926C51.4487 37.4161 51.6644 37.369 51.8321 37.2041L53.3177 35.8613C53.4854 35.6964 53.725 35.6493 53.9407 35.6964L55.9295 36.0969L63.5971 37.8166C63.9565 37.8873 64.3159 37.6988 64.4357 37.3455L65.1546 35.2252C65.2025 35.0839 65.2025 34.919 65.1546 34.7541L64.1003 31.8093C63.9565 31.3853 64.2441 30.9141 64.6993 30.867L67.8862 30.4901C68.3654 30.4429 68.6529 29.9247 68.4613 29.5006C68.3894 29.3122 68.3654 29.1237 68.4613 28.9352L69.8031 25.7784C69.9229 25.5193 70.1625 25.3544 70.45 25.3308L73.589 25.2602C73.8286 25.2602 74.0442 25.1424 74.164 24.9304L77.7582 19.5827C77.902 19.3706 77.926 19.1115 77.8062 18.8995L77.1832 17.5567C77.1113 17.3682 76.8956 17.2033 76.656 17.1797Z" fill="#057BAF"/>
<path d="M73.1816 21.3024C72.8701 21.3024 72.5825 21.4438 72.3908 21.6322L54.1323 15.1302L65.0587 17.486C65.1306 18.0043 65.5858 18.4283 66.1369 18.4283C66.736 18.4283 67.2392 17.9336 67.2392 17.3447C67.2392 16.7557 66.736 16.261 66.1369 16.261C65.8015 16.261 65.514 16.4023 65.3223 16.6379L50.9215 13.5282C50.8975 13.222 50.8496 12.9157 50.7538 12.633L57.0796 10.4657C57.2713 10.7013 57.5828 10.8662 57.9182 10.8662C58.5172 10.8662 59.0204 10.3715 59.0204 9.78251C59.0204 9.19355 58.5172 8.69884 57.9182 8.69884C57.3671 8.69884 56.9358 9.07576 56.84 9.59404L50.3704 11.8085C49.6755 10.6306 48.4056 9.85318 46.92 9.85318C46.7283 9.85318 46.5366 9.87674 46.3449 9.9003L43.3497 3.89298C43.5175 3.70452 43.6373 3.44538 43.6373 3.16268C43.6373 2.57373 43.1341 2.07901 42.5351 2.07901C41.936 2.07901 41.4328 2.57373 41.4328 3.16268C41.4328 3.75163 41.9121 4.2228 42.5111 4.24635L45.4344 10.1123C45.3385 10.1359 45.2666 10.183 45.1948 10.2301L43.6612 8.65172C43.7331 8.51037 43.7571 8.36902 43.7571 8.20411C43.7571 7.61516 43.2539 7.12044 42.6549 7.12044C42.0558 7.12044 41.5526 7.61516 41.5526 8.20411C41.5526 8.79307 42.0558 9.28779 42.6549 9.28779C42.7747 9.28779 42.8705 9.26423 42.9664 9.24067L44.404 10.7248C44.0446 11.0075 43.7571 11.3373 43.5175 11.7378L33.7173 9.09932C33.6454 8.58105 33.1901 8.18056 32.639 8.18056C32.04 8.18056 31.5368 8.67528 31.5368 9.26423C31.5368 9.85318 32.04 10.3479 32.639 10.3479C32.9745 10.3479 33.286 10.183 33.4777 9.94741L43.1341 12.5388C43.0622 12.7744 42.9903 13.0335 42.9664 13.3162L8.10265 17.1562C7.91096 16.8735 7.57551 16.6615 7.19212 16.6615C6.59309 16.6615 6.0899 17.1562 6.0899 17.7451C6.0899 18.3341 6.59309 18.8288 7.19212 18.8288C7.69531 18.8288 8.12662 18.499 8.24642 18.0278L37.0958 14.8475L24.6599 17.2975C24.4682 16.9913 24.1328 16.7793 23.7254 16.7793C23.1264 16.7793 22.6232 17.274 22.6232 17.8629C22.6232 18.4519 23.1264 18.9466 23.7254 18.9466C24.2047 18.9466 24.636 18.6168 24.7797 18.1927L38.8211 15.4365L11.4812 23.6818C11.2895 23.5169 11.0259 23.3991 10.7384 23.3991C10.1394 23.3991 9.63618 23.8938 9.63618 24.4828C9.63618 25.0717 10.1394 25.5664 10.7384 25.5664C11.3374 25.5664 11.8167 25.0953 11.8406 24.5063L43.206 15.036C43.2299 15.0831 43.2539 15.1302 43.2539 15.1773L11.2655 33.2935C11.0978 33.1993 10.9061 33.1286 10.7144 33.1286C10.1154 33.1286 9.61222 33.6233 9.61222 34.2123C9.61222 34.8012 10.1154 35.2959 10.7144 35.2959C11.3135 35.2959 11.8167 34.8012 11.8167 34.2123C11.8167 34.1416 11.8167 34.0945 11.7927 34.0238L43.6612 15.9547C43.8529 16.2139 44.0446 16.4494 44.2842 16.6615L34.0288 29.7362C33.9329 29.7127 33.8371 29.6891 33.7413 29.6891C33.1422 29.6891 32.639 30.1838 32.639 30.7728C32.639 31.3617 33.1422 31.8564 33.7413 31.8564C34.3403 31.8564 34.8435 31.3617 34.8435 30.7728C34.8435 30.6079 34.7955 30.443 34.7237 30.3016L45.0031 17.2033C45.1948 17.3211 45.4104 17.4153 45.65 17.486L40.1868 33.7647C39.6597 33.8353 39.2524 34.2829 39.2524 34.8248C39.2524 35.4137 39.7555 35.9084 40.3546 35.9084C40.9536 35.9084 41.4568 35.4137 41.4568 34.8248C41.4568 34.4949 41.313 34.2123 41.0734 34.0002L46.0574 19.1586L42.9903 36.4738C42.5351 36.6152 42.1996 37.0157 42.1996 37.5104C42.1996 38.0993 42.7028 38.5941 43.3018 38.5941C43.9008 38.5941 44.404 38.0993 44.404 37.5104C44.404 37.1335 44.1884 36.7801 43.8769 36.5916L47.2315 17.698C47.3513 17.698 47.4471 17.6745 47.5669 17.6745L49.0765 32.2805C48.765 32.469 48.5493 32.7988 48.5493 33.1993C48.5493 33.7882 49.0525 34.2829 49.6516 34.2829C50.2506 34.2829 50.7538 33.7882 50.7538 33.1993C50.7538 32.7045 50.4183 32.304 49.987 32.1627L48.4775 17.4624L50.011 22.2212C49.8193 22.4096 49.6995 22.6923 49.6995 22.975C49.6995 23.564 50.2027 24.0587 50.8017 24.0587C51.4007 24.0587 51.9039 23.564 51.9039 22.975C51.9039 22.4096 51.4487 21.9385 50.8736 21.8914L49.364 17.3447L59.1163 34.5892C58.9725 34.7776 58.8767 35.0132 58.8767 35.2488C58.8767 35.8378 59.3799 36.3325 59.9789 36.3325C60.5779 36.3325 61.0811 35.8378 61.0811 35.2488C61.0811 34.6599 60.5779 34.1651 59.9789 34.1651C59.9549 34.1651 59.931 34.1651 59.931 34.1651L51.0413 18.4519L60.1945 30.3016C60.0987 30.4665 60.0508 30.6314 60.0508 30.8199C60.0508 31.4088 60.554 31.9036 61.153 31.9036C61.752 31.9036 62.2552 31.4088 62.2552 30.8199C62.2552 30.2309 61.752 29.7362 61.153 29.7362C61.0811 29.7362 61.0092 29.7362 60.9373 29.7598L50.2746 15.9312C50.5142 15.6014 50.7059 15.2244 50.8257 14.8004L72.1512 22.4096C72.1992 22.9515 72.6784 23.3991 73.2295 23.3991C73.8285 23.3991 74.3317 22.9044 74.3317 22.3154C74.2838 21.7736 73.7806 21.3024 73.1816 21.3024Z" fill="white"/>
<path d="M91.8715 23.7524V29.7362H88.2533V13.0335H96.2085C97.3586 13.0335 98.365 13.2691 99.2515 13.7167C100.114 14.1643 100.785 14.8004 101.24 15.6249C101.696 16.4494 101.935 17.3918 101.935 18.4048C101.935 19.7711 101.576 20.8784 100.857 21.7264C100.138 22.5981 99.2515 23.1399 98.2212 23.352L102.031 29.7126H97.8857L94.5551 23.7289L91.8715 23.7524ZM97.4305 16.7557C96.9273 16.3316 96.3283 16.0961 95.5855 16.0961H91.7996V20.7134H95.6094C96.3283 20.7134 96.9513 20.5014 97.4544 20.0538C97.9576 19.6298 98.1972 19.0644 98.1972 18.4048C98.1972 17.7216 97.9576 17.1797 97.4784 16.7557H97.4305Z" fill="#057BAF"/>
<path d="M119.211 13.0099V16.0725H110.801V19.7004H119.02V22.763H110.801V26.6501H119.211V29.7362H107.183V13.0099H119.211Z" fill="#057BAF"/>
<path d="M124.938 16.9677C125.753 15.672 126.855 14.659 128.221 13.9523C129.587 13.2455 131.12 12.8922 132.773 12.8922C134.427 12.8922 135.84 13.222 136.991 13.9051C138.189 14.5883 139.123 15.4835 139.818 16.5672L136.823 18.1692C136.392 17.5567 135.84 17.0384 135.122 16.6379C134.403 16.2374 133.636 16.0254 132.797 16.0254C131.767 16.0254 130.833 16.261 130.042 16.7321C129.227 17.2268 128.58 17.8629 128.125 18.6874C127.67 19.512 127.43 20.4543 127.43 21.4673C127.43 22.5039 127.67 23.4226 128.125 24.2472C128.58 25.0717 129.227 25.7313 130.042 26.2025C130.833 26.6736 131.767 26.9092 132.797 26.9092C133.516 26.9092 134.235 26.7914 134.882 26.5323C135.553 26.2731 136.08 25.9905 136.487 25.6371V23.6111H131.959V20.5485H140.058V26.9328C139.147 27.9458 138.093 28.6996 136.895 29.265C135.673 29.8069 134.307 30.0896 132.821 30.0896C131.144 30.0896 129.61 29.7362 128.269 29.0059C126.903 28.2991 125.801 27.2626 124.986 25.9198C124.171 24.6005 123.764 23.0928 123.764 21.3966C123.764 19.6533 124.171 18.1456 124.986 16.8264L124.938 16.9677Z" fill="#057BAF"/>
<path d="M149.115 13.0099V29.7126H145.497V13.0099H149.115Z" fill="#057BAF"/>
<path d="M155.273 16.9441C156.04 15.6484 157.094 14.6119 158.46 13.858C159.802 13.1042 161.311 12.7272 163.013 12.7272C164.714 12.7272 166.247 13.1042 167.589 13.858C168.955 14.6119 170.009 15.6249 170.776 16.9441C171.543 18.2398 171.926 19.724 171.926 21.3731C171.926 23.0221 171.543 24.5063 170.776 25.802C170.009 27.0977 168.955 28.1342 167.613 28.8881C166.247 29.6419 164.714 30.0189 163.037 30.0189C161.359 30.0189 159.85 29.6419 158.508 28.8881C157.166 28.1342 156.112 27.1212 155.345 25.802C154.578 24.5063 154.195 23.0221 154.195 21.3731C154.195 19.724 154.578 18.2398 155.345 16.9441H155.273ZM167.493 18.6639C167.062 17.8393 166.439 17.2033 165.672 16.7086C164.882 16.2138 163.971 15.9783 162.989 15.9783C161.982 15.9783 161.072 16.2138 160.305 16.685C159.514 17.1797 158.891 17.8158 158.484 18.6403C158.053 19.4648 157.837 20.3836 157.837 21.4202C157.837 22.4567 158.053 23.3755 158.484 24.2C158.915 25.0246 159.514 25.6842 160.305 26.1553C161.096 26.6265 161.982 26.8621 162.989 26.8621C163.995 26.8621 164.906 26.6265 165.696 26.1318C166.487 25.6606 167.086 25.0246 167.517 24.1765C167.949 23.3519 168.164 22.4332 168.164 21.3966C168.164 20.3601 167.949 19.4413 167.517 18.6168L167.493 18.6639Z" fill="#057BAF"/>
<path d="M180.672 29.7126H177.054V13.0099H180.768L188.651 23.8231V13.0099H192.269V29.7126H188.771L180.672 18.499V29.7126Z" fill="#057BAF"/>
<path d="M196.367 13.0099H200.488L204.729 19.724L208.898 13.0099H213.02L206.526 22.8808V29.7126H202.908V22.8808L196.367 13.0099Z" fill="#057BAF"/>
<path d="M214.984 26.5323C215.392 26.1318 215.871 25.9198 216.446 25.9198C216.997 25.9198 217.5 26.1318 217.908 26.5323C218.315 26.9328 218.531 27.4039 218.531 27.9693C218.531 28.5112 218.315 29.0059 217.908 29.4064C217.5 29.8069 217.021 30.0189 216.446 30.0189C215.895 30.0189 215.392 29.8069 214.984 29.4064C214.577 29.0059 214.361 28.5347 214.361 27.9693C214.385 27.4275 214.577 26.9328 214.984 26.5323Z" fill="#FEC50C"/>
<path d="M227.54 24.6005V29.7362H223.922V13.0099H227.54V20.4779L233.555 13.0099H238.011L231.254 20.8548L238.467 29.7126H234.01L228.858 23.0221L227.54 24.6005Z" fill="#FEC50C"/>
<path d="M250.088 16.1432H242.061V13.0099H254.832V15.8605L246.805 26.5794H255V29.7126H242.061V26.8385L250.088 16.1432Z" fill="#FEC50C"/>
<path d="M47.0399 17.7216C49.2896 17.7216 51.1133 15.9285 51.1133 13.7167C51.1133 11.5049 49.2896 9.71182 47.0399 9.71182C44.7902 9.71182 42.9665 11.5049 42.9665 13.7167C42.9665 15.9285 44.7902 17.7216 47.0399 17.7216Z" fill="#FEC50C"/>
<path d="M10.7384 35.6257C11.4662 35.6257 12.0563 35.0456 12.0563 34.33C12.0563 33.6144 11.4662 33.0343 10.7384 33.0343C10.0106 33.0343 9.42053 33.6144 9.42053 34.33C9.42053 35.0456 10.0106 35.6257 10.7384 35.6257Z" fill="#FEC50C"/>
<path d="M33.7413 32.092C34.4691 32.092 35.0591 31.5119 35.0591 30.7963C35.0591 30.0807 34.4691 29.5006 33.7413 29.5006C33.0134 29.5006 32.4234 30.0807 32.4234 30.7963C32.4234 31.5119 33.0134 32.092 33.7413 32.092Z" fill="#FEC50C"/>
<path d="M40.2109 36.0969C40.9387 36.0969 41.5287 35.5168 41.5287 34.8012C41.5287 34.0856 40.9387 33.5055 40.2109 33.5055C39.483 33.5055 38.893 34.0856 38.893 34.8012C38.893 35.5168 39.483 36.0969 40.2109 36.0969Z" fill="#FEC50C"/>
<path d="M43.3259 38.6883C44.0537 38.6883 44.6437 38.1082 44.6437 37.3926C44.6437 36.677 44.0537 36.0969 43.3259 36.0969C42.598 36.0969 42.008 36.677 42.008 37.3926C42.008 38.1082 42.598 38.6883 43.3259 38.6883Z" fill="#FEC50C"/>
<path d="M49.5558 34.4478C50.2836 34.4478 50.8737 33.8677 50.8737 33.1521C50.8737 32.4365 50.2836 31.8564 49.5558 31.8564C48.8279 31.8564 48.2379 32.4365 48.2379 33.1521C48.2379 33.8677 48.8279 34.4478 49.5558 34.4478Z" fill="#FEC50C"/>
<path d="M59.8591 36.5681C60.587 36.5681 61.177 35.988 61.177 35.2724C61.177 34.5568 60.587 33.9767 59.8591 33.9767C59.1313 33.9767 58.5413 34.5568 58.5413 35.2724C58.5413 35.988 59.1313 36.5681 59.8591 36.5681Z" fill="#FEC50C"/>
<path d="M61.0573 32.092C61.7851 32.092 62.3751 31.5119 62.3751 30.7963C62.3751 30.0807 61.7851 29.5006 61.0573 29.5006C60.3294 29.5006 59.7394 30.0807 59.7394 30.7963C59.7394 31.5119 60.3294 32.092 61.0573 32.092Z" fill="#FEC50C"/>
<path d="M73.0377 23.6111C73.7656 23.6111 74.3556 23.031 74.3556 22.3154C74.3556 21.5998 73.7656 21.0197 73.0377 21.0197C72.3099 21.0197 71.7198 21.5998 71.7198 22.3154C71.7198 23.031 72.3099 23.6111 73.0377 23.6111Z" fill="#FEC50C"/>
<path d="M66.0891 18.4283C66.817 18.4283 67.407 17.8482 67.407 17.1326C67.407 16.417 66.817 15.8369 66.0891 15.8369C65.3613 15.8369 64.7712 16.417 64.7712 17.1326C64.7712 17.8482 65.3613 18.4283 66.0891 18.4283Z" fill="#FEC50C"/>
<path d="M57.9423 10.8897C58.6701 10.8897 59.2601 10.3096 59.2601 9.594C59.2601 8.87841 58.6701 8.29831 57.9423 8.29831C57.2144 8.29831 56.6244 8.87841 56.6244 9.594C56.6244 10.3096 57.2144 10.8897 57.9423 10.8897Z" fill="#FEC50C"/>
<path d="M50.7538 24.3178C51.4817 24.3178 52.0717 23.7377 52.0717 23.0221C52.0717 22.3065 51.4817 21.7264 50.7538 21.7264C50.026 21.7264 49.436 22.3065 49.436 23.0221C49.436 23.7377 50.026 24.3178 50.7538 24.3178Z" fill="#FEC50C"/>
<path d="M42.607 9.47625C43.3348 9.47625 43.9249 8.89615 43.9249 8.18055C43.9249 7.46496 43.3348 6.88486 42.607 6.88486C41.8792 6.88486 41.2891 7.46496 41.2891 8.18055C41.2891 8.89615 41.8792 9.47625 42.607 9.47625Z" fill="#FEC50C"/>
<path d="M42.607 4.52904C43.3348 4.52904 43.9249 3.94894 43.9249 3.23335C43.9249 2.51776 43.3348 1.93765 42.607 1.93765C41.8792 1.93765 41.2891 2.51776 41.2891 3.23335C41.2891 3.94894 41.8792 4.52904 42.607 4.52904Z" fill="#FEC50C"/>
<path d="M32.5432 10.6542C33.2711 10.6542 33.8611 10.0741 33.8611 9.35847C33.8611 8.64288 33.2711 8.06277 32.5432 8.06277C31.8154 8.06277 31.2253 8.64288 31.2253 9.35847C31.2253 10.0741 31.8154 10.6542 32.5432 10.6542Z" fill="#FEC50C"/>
<path d="M7.38391 18.8995C8.11175 18.8995 8.70178 18.3194 8.70178 17.6038C8.70178 16.8882 8.11175 16.3081 7.38391 16.3081C6.65607 16.3081 6.06604 16.8882 6.06604 17.6038C6.06604 18.3194 6.65607 18.8995 7.38391 18.8995Z" fill="#FEC50C"/>
<path d="M23.6776 19.1351C24.4055 19.1351 24.9955 18.555 24.9955 17.8394C24.9955 17.1238 24.4055 16.5437 23.6776 16.5437C22.9498 16.5437 22.3597 17.1238 22.3597 17.8394C22.3597 18.555 22.9498 19.1351 23.6776 19.1351Z" fill="#FEC50C"/>
<path d="M10.7384 25.7313C11.4662 25.7313 12.0563 25.1512 12.0563 24.4356C12.0563 23.7201 11.4662 23.14 10.7384 23.14C10.0106 23.14 9.42053 23.7201 9.42053 24.4356C9.42053 25.1512 10.0106 25.7313 10.7384 25.7313Z" fill="#FEC50C"/>
<path d="M7.79256 54.6098C8.45213 54.7827 8.95419 55.0806 9.29874 55.5033C9.64329 55.9165 9.81556 56.4353 9.81556 57.0599C9.81556 57.9438 9.48086 58.6308 8.81144 59.1208C8.14203 59.6109 7.17237 59.8559 5.90246 59.8559H1V49.7672H5.62189C6.78352 49.7672 7.6892 49.993 8.33892 50.4446C8.98864 50.8962 9.3135 51.5351 9.3135 52.3614C9.3135 52.8899 9.18061 53.3463 8.91481 53.7306C8.65886 54.1149 8.28478 54.408 7.79256 54.6098ZM2.8901 54.0765H5.45946C6.07965 54.0765 6.55218 53.9564 6.87704 53.7162C7.2019 53.476 7.36433 53.1205 7.36433 52.6497C7.36433 52.1789 7.2019 51.8234 6.87704 51.5831C6.55218 51.3333 6.07965 51.2084 5.45946 51.2084H2.8901V54.0765ZM5.84339 58.4146C7.2019 58.4146 7.88116 57.915 7.88116 56.9157C7.88116 55.9357 7.2019 55.4457 5.84339 55.4457H2.8901V58.4146H5.84339Z" fill="#057BAF"/>
<path d="M16.7572 60C15.7137 60 14.7686 59.779 13.922 59.337C13.0853 58.8854 12.4257 58.2657 11.9433 57.4778C11.4708 56.6899 11.2345 55.8012 11.2345 54.8115C11.2345 53.8219 11.4757 52.9331 11.9581 52.1452C12.4405 51.3574 13.1 50.7424 13.9368 50.3004C14.7834 49.8489 15.7284 49.6231 16.7719 49.6231C17.6185 49.6231 18.3913 49.7672 19.0903 50.0554C19.7892 50.3437 20.3799 50.7616 20.8622 51.3093L19.6219 52.4479C18.8737 51.66 17.9533 51.2661 16.8605 51.2661C16.1517 51.2661 15.5168 51.4198 14.9557 51.7273C14.3945 52.0251 13.9565 52.4431 13.6415 52.9812C13.3264 53.5192 13.1689 54.1293 13.1689 54.8115C13.1689 55.4937 13.3264 56.1038 13.6415 56.6419C13.9565 57.18 14.3945 57.6027 14.9557 57.9102C15.5168 58.2081 16.1517 58.357 16.8605 58.357C17.9533 58.357 18.8737 57.9582 19.6219 57.1608L20.8622 58.3137C20.3799 58.8614 19.7843 59.2794 19.0755 59.5676C18.3766 59.8559 17.6038 60 16.7572 60Z" fill="#057BAF"/>
<path d="M30.397 58.2849V59.8559H22.6446V49.7672H30.1902V51.3381H24.5642V53.9612H29.5553V55.5033H24.5642V58.2849H30.397Z" fill="#057BAF"/>
<path d="M41.4022 60C40.3489 60 39.3989 59.779 38.5523 59.337C37.7057 58.8854 37.0412 58.2657 36.5588 57.4778C36.0765 56.6803 35.8353 55.7916 35.8353 54.8115C35.8353 53.8315 36.0765 52.9475 36.5588 52.1596C37.0412 51.3622 37.7057 50.7424 38.5523 50.3004C39.3989 49.8489 40.3489 49.6231 41.4022 49.6231C42.4556 49.6231 43.4056 49.8489 44.2522 50.3004C45.0988 50.7424 45.7633 51.3574 46.2456 52.1452C46.728 52.9331 46.9692 53.8219 46.9692 54.8115C46.9692 55.8012 46.728 56.6899 46.2456 57.4778C45.7633 58.2657 45.0988 58.8854 44.2522 59.337C43.4056 59.779 42.4556 60 41.4022 60ZM41.4022 58.357C42.0913 58.357 42.7115 58.2081 43.2628 57.9102C43.8141 57.6027 44.2472 57.18 44.5623 56.6419C44.8773 56.0942 45.0348 55.4841 45.0348 54.8115C45.0348 54.1389 44.8773 53.5336 44.5623 52.9956C44.2472 52.4479 43.8141 52.0251 43.2628 51.7273C42.7115 51.4198 42.0913 51.2661 41.4022 51.2661C40.7131 51.2661 40.0929 51.4198 39.5417 51.7273C38.9904 52.0251 38.5572 52.4479 38.2422 52.9956C37.9272 53.5336 37.7697 54.1389 37.7697 54.8115C37.7697 55.4841 37.9272 56.0942 38.2422 56.6419C38.5572 57.18 38.9904 57.6027 39.5417 57.9102C40.0929 58.2081 40.7131 58.357 41.4022 58.357Z" fill="#057BAF"/>
<path d="M57.9273 60C56.8838 60 55.9387 59.779 55.0921 59.337C54.2553 58.8854 53.5958 58.2657 53.1134 57.4778C52.6409 56.6899 52.4046 55.8012 52.4046 54.8115C52.4046 53.8219 52.6458 52.9331 53.1282 52.1452C53.6105 51.3574 54.2701 50.7424 55.1069 50.3004C55.9535 49.8489 56.8985 49.6231 57.942 49.6231C58.7886 49.6231 59.5614 49.7672 60.2604 50.0554C60.9593 50.3437 61.55 50.7616 62.0323 51.3093L60.792 52.4479C60.0438 51.66 59.1233 51.2661 58.0306 51.2661C57.3218 51.2661 56.6869 51.4198 56.1258 51.7273C55.5646 52.0251 55.1266 52.4431 54.8115 52.9812C54.4965 53.5192 54.339 54.1293 54.339 54.8115C54.339 55.4937 54.4965 56.1038 54.8115 56.6419C55.1266 57.18 55.5646 57.6027 56.1258 57.9102C56.6869 58.2081 57.3218 58.357 58.0306 58.357C59.1233 58.357 60.0438 57.9582 60.792 57.1608L62.0323 58.3137C61.55 58.8614 60.9544 59.2794 60.2456 59.5676C59.5466 59.8559 58.7739 60 57.9273 60Z" fill="#057BAF"/>
<path d="M71.2007 51.3526H67.7749V59.8559H65.87V51.3526H62.4589V49.7672H71.2007V51.3526Z" fill="#057BAF"/>
<path d="M77.109 49.7672C78.0048 49.7672 78.7825 49.9113 79.4421 50.1996C80.1115 50.4878 80.6234 50.901 80.9778 51.439C81.3322 51.9771 81.5094 52.616 81.5094 53.3559C81.5094 54.0861 81.3322 54.7251 80.9778 55.2727C80.6234 55.8108 80.1115 56.2239 79.4421 56.5122C78.7825 56.8004 78.0048 56.9446 77.109 56.9446H74.7759V59.8559H72.8562V49.7672H77.109ZM77.0204 55.3592C77.8571 55.3592 78.4921 55.1863 78.9252 54.8404C79.3584 54.4945 79.575 53.9996 79.575 53.3559C79.575 52.7121 79.3584 52.2173 78.9252 51.8714C78.4921 51.5255 77.8571 51.3526 77.0204 51.3526H74.7759V55.3592H77.0204Z" fill="#057BAF"/>
<path d="M89.6579 57.5211H84.4897L83.4708 59.8559H81.4921L86.1435 49.7672H88.0336L92.6998 59.8559H90.6916L89.6579 57.5211ZM89.023 56.051L87.0738 51.6408L85.1394 56.051H89.023Z" fill="#057BAF"/>
<path d="M103.47 49.7672V59.8559H101.55V55.5322H96.2045V59.8559H94.2849V49.7672H96.2045V53.9324H101.55V49.7672H103.47Z" fill="#057BAF"/>
<path d="M114.122 58.2849V59.8559H106.369V49.7672H113.915V51.3381H108.289V53.9612H113.28V55.5033H108.289V58.2849H114.122Z" fill="#057BAF"/>
<path d="M127.15 54.6098C127.809 54.7827 128.311 55.0806 128.656 55.5033C129.001 55.9165 129.173 56.4353 129.173 57.0599C129.173 57.9438 128.838 58.6308 128.169 59.1208C127.499 59.6109 126.53 59.8559 125.26 59.8559H120.357V49.7672H124.979C126.141 49.7672 127.046 49.993 127.696 50.4446C128.346 50.8962 128.671 51.5351 128.671 52.3614C128.671 52.8899 128.538 53.3463 128.272 53.7306C128.016 54.1149 127.642 54.408 127.15 54.6098ZM122.247 54.0765H124.817C125.437 54.0765 125.909 53.9564 126.234 53.7162C126.559 53.476 126.722 53.1205 126.722 52.6497C126.722 52.1789 126.559 51.8234 126.234 51.5831C125.909 51.3333 125.437 51.2084 124.817 51.2084H122.247V54.0765ZM125.201 58.4146C126.559 58.4146 127.238 57.915 127.238 56.9157C127.238 55.9357 126.559 55.4457 125.201 55.4457H122.247V58.4146H125.201Z" fill="#057BAF"/>
<path d="M139.112 58.2849V59.8559H131.36V49.7672H138.905V51.3381H133.279V53.9612H138.27V55.5033H133.279V58.2849H139.112Z" fill="#057BAF"/>
<path d="M150.082 49.7672V59.8559H148.192V51.3526H144.117L144.028 53.8747C143.979 55.2871 143.861 56.4353 143.674 57.3193C143.487 58.1936 143.186 58.8614 142.773 59.3226C142.359 59.7742 141.788 60 141.06 60C140.804 60 140.455 59.952 140.012 59.8559L140.144 58.2273C140.272 58.2657 140.42 58.2849 140.587 58.2849C141.188 58.2849 141.611 57.939 141.857 57.2472C142.113 56.5458 142.271 55.4457 142.33 53.9468L142.478 49.7672H150.082Z" fill="#057BAF"/>
<path d="M153.005 49.7672H154.895V56.9302L160.447 49.7672H162.234V59.8559H160.344V52.7073L154.792 59.8559H153.005V49.7672Z" fill="#057BAF"/>
<path d="M168.942 55.6042H167.022V59.8559H165.132V49.7672H167.022V53.99H169.001L171.969 49.7672H174.007L170.478 54.653L174.14 59.8559H171.969L168.942 55.6042Z" fill="#057BAF"/>
<path d="M180.198 60C179.145 60 178.195 59.779 177.348 59.337C176.502 58.8854 175.837 58.2657 175.355 57.4778C174.872 56.6803 174.631 55.7916 174.631 54.8115C174.631 53.8315 174.872 52.9475 175.355 52.1596C175.837 51.3622 176.502 50.7424 177.348 50.3004C178.195 49.8489 179.145 49.6231 180.198 49.6231C181.251 49.6231 182.201 49.8489 183.048 50.3004C183.895 50.7424 184.559 51.3574 185.041 52.1452C185.524 52.9331 185.765 53.8219 185.765 54.8115C185.765 55.8012 185.524 56.6899 185.041 57.4778C184.559 58.2657 183.895 58.8854 183.048 59.337C182.201 59.779 181.251 60 180.198 60ZM180.198 58.357C180.887 58.357 181.507 58.2081 182.059 57.9102C182.61 57.6027 183.043 57.18 183.358 56.6419C183.673 56.0942 183.831 55.4841 183.831 54.8115C183.831 54.1389 183.673 53.5336 183.358 52.9956C183.043 52.4479 182.61 52.0251 182.059 51.7273C181.507 51.4198 180.887 51.2661 180.198 51.2661C179.509 51.2661 178.889 51.4198 178.338 51.7273C177.786 52.0251 177.353 52.4479 177.038 52.9956C176.723 53.5336 176.566 54.1389 176.566 54.8115C176.566 55.4841 176.723 56.0942 177.038 56.6419C177.353 57.18 177.786 57.6027 178.338 57.9102C178.889 58.2081 179.509 58.357 180.198 58.357Z" fill="#057BAF"/>
<path d="M187.902 49.7672H189.792V56.9302L195.344 49.7672H197.131V59.8559H195.241V52.7073L189.689 59.8559H187.902V49.7672ZM192.494 49.0898C191.609 49.0898 190.939 48.912 190.486 48.5565C190.043 48.201 189.817 47.6822 189.807 47H191.151C191.161 47.3555 191.279 47.6293 191.505 47.8215C191.732 48.0137 192.061 48.1098 192.494 48.1098C192.918 48.1098 193.248 48.0137 193.484 47.8215C193.73 47.6293 193.858 47.3555 193.868 47H195.197C195.187 47.6726 194.951 48.1914 194.488 48.5565C194.035 48.912 193.371 49.0898 192.494 49.0898Z" fill="#057BAF"/>
<path d="M208.865 60C207.822 60 206.877 59.779 206.03 59.337C205.193 58.8854 204.534 58.2657 204.051 57.4778C203.579 56.6899 203.342 55.8012 203.342 54.8115C203.342 53.8219 203.584 52.9331 204.066 52.1452C204.548 51.3574 205.208 50.7424 206.045 50.3004C206.891 49.8489 207.836 49.6231 208.88 49.6231C209.726 49.6231 210.499 49.7672 211.198 50.0554C211.897 50.3437 212.488 50.7616 212.97 51.3093L211.73 52.4479C210.982 51.66 210.061 51.2661 208.968 51.2661C208.26 51.2661 207.625 51.4198 207.064 51.7273C206.502 52.0251 206.064 52.4431 205.749 52.9812C205.434 53.5192 205.277 54.1293 205.277 54.8115C205.277 55.4937 205.434 56.1038 205.749 56.6419C206.064 57.18 206.502 57.6027 207.064 57.9102C207.625 58.2081 208.26 58.357 208.968 58.357C210.061 58.357 210.982 57.9582 211.73 57.1608L212.97 58.3137C212.488 58.8614 211.892 59.2794 211.183 59.5676C210.484 59.8559 209.712 60 208.865 60Z" fill="#057BAF"/>
<path d="M222.138 51.3526H218.713V59.8559H216.808V51.3526H213.397V49.7672H222.138V51.3526Z" fill="#057BAF"/>
<path d="M231.546 58.2849V59.8559H223.794V49.7672H231.34V51.3381H225.714V53.9612H230.705V55.5033H225.714V58.2849H231.546Z" fill="#057BAF"/>
<path d="M242.842 49.7672V59.8559H240.951V51.3526H235.591V59.8559H233.701V49.7672H242.842Z" fill="#057BAF"/>
<path d="M245.771 49.7672H247.661V56.9302L253.213 49.7672H255V59.8559H253.11V52.7073L247.558 59.8559H245.771V49.7672Z" fill="#057BAF"/>
</svg>
