<svg width="255" height="58" viewBox="0 0 255 58" fill="none" xmlns="http://www.w3.org/2000/svg">
<path d="M7.79256 52.6098C8.45213 52.7827 8.95419 53.0806 9.29874 53.5033C9.64329 53.9165 9.81556 54.4353 9.81556 55.0599C9.81556 55.9438 9.48086 56.6308 8.81144 57.1208C8.14203 57.6109 7.17237 57.8559 5.90246 57.8559H1V47.7672H5.62189C6.78352 47.7672 7.6892 47.993 8.33892 48.4446C8.98864 48.8962 9.3135 49.5351 9.3135 50.3614C9.3135 50.8899 9.18061 51.3463 8.91481 51.7306C8.65886 52.1149 8.28478 52.408 7.79256 52.6098ZM2.8901 52.0765H5.45946C6.07965 52.0765 6.55218 51.9564 6.87704 51.7162C7.2019 51.476 7.36433 51.1205 7.36433 50.6497C7.36433 50.1789 7.2019 49.8234 6.87704 49.5831C6.55218 49.3333 6.07965 49.2084 5.45946 49.2084H2.8901V52.0765ZM5.84339 56.4146C7.2019 56.4146 7.88116 55.915 7.88116 54.9157C7.88116 53.9357 7.2019 53.4457 5.84339 53.4457H2.8901V56.4146H5.84339Z" fill="#057BAF"/>
<path d="M16.7572 58C15.7137 58 14.7686 57.779 13.922 57.337C13.0853 56.8854 12.4257 56.2657 11.9433 55.4778C11.4708 54.6899 11.2345 53.8012 11.2345 52.8115C11.2345 51.8219 11.4757 50.9331 11.9581 50.1452C12.4405 49.3574 13.1 48.7424 13.9368 48.3004C14.7834 47.8489 15.7284 47.6231 16.7719 47.6231C17.6185 47.6231 18.3913 47.7672 19.0903 48.0554C19.7892 48.3437 20.3799 48.7616 20.8622 49.3093L19.6219 50.4479C18.8737 49.66 17.9533 49.2661 16.8605 49.2661C16.1517 49.2661 15.5168 49.4198 14.9557 49.7273C14.3945 50.0251 13.9565 50.4431 13.6415 50.9812C13.3264 51.5192 13.1689 52.1293 13.1689 52.8115C13.1689 53.4937 13.3264 54.1038 13.6415 54.6419C13.9565 55.18 14.3945 55.6027 14.9557 55.9102C15.5168 56.2081 16.1517 56.357 16.8605 56.357C17.9533 56.357 18.8737 55.9582 19.6219 55.1608L20.8622 56.3137C20.3799 56.8614 19.7843 57.2794 19.0755 57.5676C18.3766 57.8559 17.6038 58 16.7572 58Z" fill="#057BAF"/>
<path d="M30.397 56.2849V57.8559H22.6446V47.7672H30.1902V49.3381H24.5642V51.9612H29.5553V53.5033H24.5642V56.2849H30.397Z" fill="#057BAF"/>
<path d="M41.4022 58C40.3489 58 39.3989 57.779 38.5523 57.337C37.7057 56.8854 37.0412 56.2657 36.5588 55.4778C36.0765 54.6803 35.8353 53.7916 35.8353 52.8115C35.8353 51.8315 36.0765 50.9475 36.5588 50.1596C37.0412 49.3622 37.7057 48.7424 38.5523 48.3004C39.3989 47.8489 40.3489 47.6231 41.4022 47.6231C42.4556 47.6231 43.4056 47.8489 44.2522 48.3004C45.0988 48.7424 45.7633 49.3574 46.2456 50.1452C46.728 50.9331 46.9692 51.8219 46.9692 52.8115C46.9692 53.8012 46.728 54.6899 46.2456 55.4778C45.7633 56.2657 45.0988 56.8854 44.2522 57.337C43.4056 57.779 42.4556 58 41.4022 58ZM41.4022 56.357C42.0913 56.357 42.7115 56.2081 43.2628 55.9102C43.8141 55.6027 44.2472 55.18 44.5623 54.6419C44.8773 54.0942 45.0348 53.4841 45.0348 52.8115C45.0348 52.1389 44.8773 51.5336 44.5623 50.9956C44.2472 50.4479 43.8141 50.0251 43.2628 49.7273C42.7115 49.4198 42.0913 49.2661 41.4022 49.2661C40.7131 49.2661 40.0929 49.4198 39.5417 49.7273C38.9904 50.0251 38.5572 50.4479 38.2422 50.9956C37.9272 51.5336 37.7697 52.1389 37.7697 52.8115C37.7697 53.4841 37.9272 54.0942 38.2422 54.6419C38.5572 55.18 38.9904 55.6027 39.5417 55.9102C40.0929 56.2081 40.7131 56.357 41.4022 56.357Z" fill="#057BAF"/>
<path d="M57.9273 58C56.8838 58 55.9387 57.779 55.0921 57.337C54.2553 56.8854 53.5958 56.2657 53.1134 55.4778C52.6409 54.6899 52.4046 53.8012 52.4046 52.8115C52.4046 51.8219 52.6458 50.9331 53.1282 50.1452C53.6105 49.3574 54.2701 48.7424 55.1069 48.3004C55.9535 47.8489 56.8985 47.6231 57.942 47.6231C58.7886 47.6231 59.5614 47.7672 60.2604 48.0554C60.9593 48.3437 61.55 48.7616 62.0323 49.3093L60.792 50.4479C60.0438 49.66 59.1233 49.2661 58.0306 49.2661C57.3218 49.2661 56.6869 49.4198 56.1258 49.7273C55.5646 50.0251 55.1266 50.4431 54.8115 50.9812C54.4965 51.5192 54.339 52.1293 54.339 52.8115C54.339 53.4937 54.4965 54.1038 54.8115 54.6419C55.1266 55.18 55.5646 55.6027 56.1258 55.9102C56.6869 56.2081 57.3218 56.357 58.0306 56.357C59.1233 56.357 60.0438 55.9582 60.792 55.1608L62.0323 56.3137C61.55 56.8614 60.9544 57.2794 60.2456 57.5676C59.5466 57.8559 58.7739 58 57.9273 58Z" fill="#057BAF"/>
<path d="M71.2007 49.3526H67.7749V57.8559H65.87V49.3526H62.4589V47.7672H71.2007V49.3526Z" fill="#057BAF"/>
<path d="M77.109 47.7672C78.0048 47.7672 78.7825 47.9113 79.4421 48.1996C80.1115 48.4878 80.6234 48.901 80.9778 49.439C81.3322 49.9771 81.5094 50.616 81.5094 51.3559C81.5094 52.0861 81.3322 52.7251 80.9778 53.2727C80.6234 53.8108 80.1115 54.2239 79.4421 54.5122C78.7825 54.8004 78.0048 54.9446 77.109 54.9446H74.7759V57.8559H72.8562V47.7672H77.109ZM77.0204 53.3592C77.8571 53.3592 78.4921 53.1863 78.9252 52.8404C79.3584 52.4945 79.575 51.9996 79.575 51.3559C79.575 50.7121 79.3584 50.2173 78.9252 49.8714C78.4921 49.5255 77.8571 49.3526 77.0204 49.3526H74.7759V53.3592H77.0204Z" fill="#057BAF"/>
<path d="M89.6579 55.5211H84.4897L83.4708 57.8559H81.4921L86.1435 47.7672H88.0336L92.6998 57.8559H90.6916L89.6579 55.5211ZM89.023 54.051L87.0738 49.6408L85.1394 54.051H89.023Z" fill="#057BAF"/>
<path d="M103.47 47.7672V57.8559H101.55V53.5322H96.2045V57.8559H94.2849V47.7672H96.2045V51.9324H101.55V47.7672H103.47Z" fill="#057BAF"/>
<path d="M114.122 56.2849V57.8559H106.369V47.7672H113.915V49.3381H108.289V51.9612H113.28V53.5033H108.289V56.2849H114.122Z" fill="#057BAF"/>
<path d="M127.15 52.6098C127.809 52.7827 128.311 53.0806 128.656 53.5033C129.001 53.9165 129.173 54.4353 129.173 55.0599C129.173 55.9438 128.838 56.6308 128.169 57.1208C127.499 57.6109 126.53 57.8559 125.26 57.8559H120.357V47.7672H124.979C126.141 47.7672 127.046 47.993 127.696 48.4446C128.346 48.8962 128.671 49.5351 128.671 50.3614C128.671 50.8899 128.538 51.3463 128.272 51.7306C128.016 52.1149 127.642 52.408 127.15 52.6098ZM122.247 52.0765H124.817C125.437 52.0765 125.909 51.9564 126.234 51.7162C126.559 51.476 126.722 51.1205 126.722 50.6497C126.722 50.1789 126.559 49.8234 126.234 49.5831C125.909 49.3333 125.437 49.2084 124.817 49.2084H122.247V52.0765ZM125.201 56.4146C126.559 56.4146 127.238 55.915 127.238 54.9157C127.238 53.9357 126.559 53.4457 125.201 53.4457H122.247V56.4146H125.201Z" fill="#057BAF"/>
<path d="M139.112 56.2849V57.8559H131.36V47.7672H138.905V49.3381H133.279V51.9612H138.27V53.5033H133.279V56.2849H139.112Z" fill="#057BAF"/>
<path d="M150.082 47.7672V57.8559H148.192V49.3526H144.117L144.028 51.8747C143.979 53.2871 143.861 54.4353 143.674 55.3193C143.487 56.1936 143.186 56.8614 142.773 57.3226C142.359 57.7742 141.788 58 141.06 58C140.804 58 140.455 57.952 140.012 57.8559L140.144 56.2273C140.272 56.2657 140.42 56.2849 140.587 56.2849C141.188 56.2849 141.611 55.939 141.857 55.2472C142.113 54.5458 142.271 53.4457 142.33 51.9468L142.478 47.7672H150.082Z" fill="#057BAF"/>
<path d="M153.005 47.7672H154.895V54.9302L160.447 47.7672H162.234V57.8559H160.344V50.7073L154.792 57.8559H153.005V47.7672Z" fill="#057BAF"/>
<path d="M168.942 53.6042H167.022V57.8559H165.132V47.7672H167.022V51.99H169.001L171.969 47.7672H174.007L170.478 52.653L174.14 57.8559H171.969L168.942 53.6042Z" fill="#057BAF"/>
<path d="M180.198 58C179.145 58 178.195 57.779 177.348 57.337C176.502 56.8854 175.837 56.2657 175.355 55.4778C174.872 54.6803 174.631 53.7916 174.631 52.8115C174.631 51.8315 174.872 50.9475 175.355 50.1596C175.837 49.3622 176.502 48.7424 177.348 48.3004C178.195 47.8489 179.145 47.6231 180.198 47.6231C181.251 47.6231 182.201 47.8489 183.048 48.3004C183.895 48.7424 184.559 49.3574 185.041 50.1452C185.524 50.9331 185.765 51.8219 185.765 52.8115C185.765 53.8012 185.524 54.6899 185.041 55.4778C184.559 56.2657 183.895 56.8854 183.048 57.337C182.201 57.779 181.251 58 180.198 58ZM180.198 56.357C180.887 56.357 181.507 56.2081 182.059 55.9102C182.61 55.6027 183.043 55.18 183.358 54.6419C183.673 54.0942 183.831 53.4841 183.831 52.8115C183.831 52.1389 183.673 51.5336 183.358 50.9956C183.043 50.4479 182.61 50.0251 182.059 49.7273C181.507 49.4198 180.887 49.2661 180.198 49.2661C179.509 49.2661 178.889 49.4198 178.338 49.7273C177.786 50.0251 177.353 50.4479 177.038 50.9956C176.723 51.5336 176.566 52.1389 176.566 52.8115C176.566 53.4841 176.723 54.0942 177.038 54.6419C177.353 55.18 177.786 55.6027 178.338 55.9102C178.889 56.2081 179.509 56.357 180.198 56.357Z" fill="#057BAF"/>
<path d="M187.902 47.7672H189.792V54.9302L195.344 47.7672H197.131V57.8559H195.241V50.7073L189.689 57.8559H187.902V47.7672ZM192.494 47.0898C191.609 47.0898 190.939 46.912 190.486 46.5565C190.043 46.201 189.817 45.6822 189.807 45H191.151C191.161 45.3555 191.279 45.6293 191.505 45.8215C191.732 46.0137 192.061 46.1098 192.494 46.1098C192.918 46.1098 193.248 46.0137 193.484 45.8215C193.73 45.6293 193.858 45.3555 193.868 45H195.197C195.187 45.6726 194.951 46.1914 194.488 46.5565C194.035 46.912 193.371 47.0898 192.494 47.0898Z" fill="#057BAF"/>
<path d="M208.865 58C207.822 58 206.876 57.779 206.03 57.337C205.193 56.8854 204.534 56.2657 204.051 55.4778C203.579 54.6899 203.342 53.8012 203.342 52.8115C203.342 51.8219 203.584 50.9331 204.066 50.1452C204.548 49.3574 205.208 48.7424 206.045 48.3004C206.891 47.8489 207.836 47.6231 208.88 47.6231C209.726 47.6231 210.499 47.7672 211.198 48.0554C211.897 48.3437 212.488 48.7616 212.97 49.3093L211.73 50.4479C210.982 49.66 210.061 49.2661 208.968 49.2661C208.26 49.2661 207.625 49.4198 207.064 49.7273C206.502 50.0251 206.064 50.4431 205.749 50.9812C205.434 51.5192 205.277 52.1293 205.277 52.8115C205.277 53.4937 205.434 54.1038 205.749 54.6419C206.064 55.18 206.502 55.6027 207.064 55.9102C207.625 56.2081 208.26 56.357 208.968 56.357C210.061 56.357 210.982 55.9582 211.73 55.1608L212.97 56.3137C212.488 56.8614 211.892 57.2794 211.183 57.5676C210.484 57.8559 209.712 58 208.865 58Z" fill="#057BAF"/>
<path d="M222.138 49.3526H218.713V57.8559H216.808V49.3526H213.397V47.7672H222.138V49.3526Z" fill="#057BAF"/>
<path d="M231.546 56.2849V57.8559H223.794V47.7672H231.34V49.3381H225.714V51.9612H230.705V53.5033H225.714V56.2849H231.546Z" fill="#057BAF"/>
<path d="M242.842 47.7672V57.8559H240.951V49.3526H235.591V57.8559H233.701V47.7672H242.842Z" fill="#057BAF"/>
<path d="M245.771 47.7672H247.661V54.9302L253.213 47.7672H255V57.8559H253.11V50.7073L247.558 57.8559H245.771V47.7672Z" fill="#057BAF"/>
<path d="M228.778 28.6739C228.692 28.1062 228.821 27.5822 229.229 27.1455C228.499 26.8835 227.682 27.2984 226.951 27.8442C226.715 27.4075 226.865 27.08 226.994 26.3595C226.242 26.425 225.468 26.8835 224.716 27.9752C225.533 24.7656 223.34 22.8005 221.041 22.8005C219.3 22.8005 218.053 24.045 218.053 25.2459C218.053 25.6389 218.203 26.2066 218.44 26.5342C217.967 26.7525 217.322 26.6433 216.849 26.4032C217.086 27.2984 217.602 27.8442 218.676 27.4512C218.741 28.1281 218.956 28.6739 219.407 29.0451C219.88 28.6739 220.159 28.1062 220.138 27.4512C221.148 27.9534 221.707 27.3857 222.158 26.5778C222.158 26.5778 220.138 27.08 220.138 25.7918C220.138 25.2023 220.331 24.6564 221.191 24.6564C221.943 24.6564 222.975 25.3114 222.889 26.8398C222.824 28.3682 221.857 29.6128 219.45 29.6128C217.236 29.6128 216.14 27.8005 216.076 25.3988C216.011 23.2372 217.15 21.6214 219.343 21.6214C222.266 21.6214 228.886 25.901 231.486 25.901C233.442 25.901 234.517 24.1324 234.517 22.3856C234.517 21.2939 234.001 20.3114 233.485 19.5472C234.022 18.8048 234.517 17.8004 234.517 16.7087C234.517 14.962 233.421 13.1934 231.486 13.1934C228.886 13.1934 222.244 17.4729 219.343 17.4729C217.15 17.4729 216.011 15.8572 216.076 13.6956C216.14 11.3156 217.258 9.48154 219.45 9.48154C221.857 9.48154 222.824 10.7261 222.889 12.2545C222.953 13.7829 221.922 14.4379 221.191 14.4379C220.331 14.4379 220.138 13.8921 220.138 13.3026C220.138 11.9925 222.158 12.5165 222.158 12.5165C221.707 11.7086 221.126 11.1628 220.138 11.6431C220.159 10.9881 219.88 10.4204 219.407 10.0492C218.977 10.4204 218.741 10.9663 218.676 11.6431C217.602 11.2501 217.086 11.796 216.849 12.6912C217.322 12.451 217.967 12.3418 218.44 12.5602C218.203 12.8877 218.053 13.4554 218.053 13.8484C218.053 15.0493 219.3 16.2939 221.041 16.2939C223.34 16.2939 225.554 14.3288 224.716 11.1191C225.468 12.2327 226.242 12.6694 226.994 12.7349C226.844 12.0362 226.715 11.7086 226.951 11.2501C227.682 11.796 228.499 12.2108 229.229 11.9488C228.821 11.5121 228.692 10.9881 228.778 10.4204C231.379 11.4248 234.624 9.65622 234.99 6.09722C234.99 6.09722 231.895 8.10598 229.487 8.10598C225.124 8.10598 223.512 6.49024 219.643 6.49024C217.129 6.49024 215.517 7.97497 214.764 9.43787C214.679 8.12781 214.378 7.62562 213.346 6.83959C212.615 7.25444 212.078 7.95314 211.777 9.02302C210.573 7.36361 208.832 6.53391 207.199 6.53391C203.266 6.53391 202.32 8.12781 196.689 8.12781C194.948 8.12781 193.207 7.45095 191.573 6.03172C192.347 9.87456 195.614 11.3811 198 10.1584C198.322 10.9444 197.806 11.5121 197.548 12.1235C198.859 12.1453 199.44 11.6213 200.106 11.2283C200.106 11.2283 200.063 11.8833 199.848 12.4947C200.686 12.4073 201.439 12.0143 201.804 11.2283C201.288 14.5253 203.373 16.272 205.866 16.272C208.381 16.272 209.026 14.0231 208.617 12.5383C208.961 12.4728 209.348 12.4728 209.757 12.6694C209.542 11.7305 209.026 11.2938 207.973 11.6213C207.887 11.0754 207.607 10.6388 207.242 10.2676C206.833 10.6388 206.576 11.1191 206.447 11.6213C205.587 11.2938 204.899 11.8615 204.749 12.5602C204.749 12.5602 206.576 12.1672 206.576 13.5646C206.576 14.1104 206.232 14.5034 205.458 14.5034C204.34 14.5034 203.695 13.8702 203.695 12.2545C203.695 10.9444 204.77 9.65622 207.199 9.65622C209.198 9.65622 210.939 11.6868 210.896 13.5427C210.853 15.5733 209.241 17.5166 207.263 17.5166C205.995 17.5166 205.114 17.3856 204.34 17.0144C198.193 14.0012 182.331 6.25006 182.331 6.25006C180.375 5.28935 179.086 4.89633 177.022 4.89633C173.734 4.89633 171.155 6.97059 170.703 10.8571C170.252 6.94876 167.673 4.89633 164.384 4.89633C162.321 4.89633 161.053 5.26752 159.075 6.25006C159.075 6.25006 143.213 14.0012 137.066 17.0144C136.292 17.3856 135.433 17.5166 134.143 17.5166C132.166 17.5166 130.554 15.5733 130.511 13.5427C130.468 11.6868 132.209 9.65622 134.208 9.65622C136.636 9.65622 137.711 10.9226 137.711 12.2545C137.711 13.8702 137.066 14.5034 135.949 14.5034C135.175 14.5034 134.831 14.1323 134.831 13.5646C134.831 12.189 136.658 12.5602 136.658 12.5602C136.507 11.8833 135.82 11.3156 134.96 11.6213C134.852 11.1191 134.594 10.6388 134.165 10.2676C133.821 10.6388 133.541 11.0536 133.434 11.6213C132.381 11.2938 131.865 11.7305 131.65 12.6694C132.058 12.4728 132.424 12.4728 132.789 12.5383C132.381 14.0231 133.025 16.272 135.54 16.272C138.033 16.272 140.118 14.5253 139.602 11.2283C139.968 12.0143 140.72 12.4073 141.558 12.4947C141.322 11.9052 141.3 11.2283 141.3 11.2283C141.967 11.6213 142.547 12.1453 143.858 12.1235C143.579 11.5121 143.084 10.9444 143.407 10.1584C145.792 11.3811 149.059 9.87456 149.833 6.03172C148.221 7.42911 146.459 8.12781 144.718 8.12781C139.065 8.12781 138.119 6.53391 134.208 6.53391C132.596 6.53391 130.833 7.36361 129.629 9.02302C129.329 7.9313 128.791 7.23261 128.06 6.83959C127.33 7.25444 126.792 7.95314 126.491 9.02302C125.288 7.36361 123.547 6.53391 121.913 6.53391C117.98 6.53391 117.034 8.12781 111.403 8.12781C109.662 8.12781 107.921 7.45095 106.288 6.03172C107.062 9.87456 110.329 11.3811 112.714 10.1584C113.037 10.9444 112.521 11.5121 112.263 12.1235C113.574 12.1453 114.154 11.6213 114.821 11.2283C114.821 11.2283 114.778 11.8833 114.563 12.4947C115.401 12.4073 116.153 12.0143 116.519 11.2283C116.003 14.5253 118.088 16.272 120.581 16.272C123.096 16.272 123.74 14.0231 123.332 12.5383C123.676 12.4728 124.063 12.4728 124.471 12.6694C124.256 11.7305 123.74 11.2938 122.687 11.6213C122.601 11.0754 122.322 10.6388 121.956 10.2676C121.548 10.6388 121.29 11.1191 121.161 11.6213C120.301 11.2938 119.614 11.8615 119.463 12.5602C119.463 12.5602 121.29 12.1672 121.29 13.5646C121.29 14.1104 120.946 14.5034 120.172 14.5034C119.055 14.5034 118.41 13.8702 118.41 12.2545C118.41 10.9444 119.485 9.65622 121.913 9.65622C123.912 9.65622 125.653 11.6868 125.61 13.5427C125.567 15.5733 123.955 17.5166 121.978 17.5166C120.71 17.5166 119.829 17.3856 119.055 17.0144C112.908 14.0012 97.0456 6.25006 97.0456 6.25006C95.0898 5.28935 93.8001 4.89633 91.7368 4.89633C88.4483 4.89633 85.8691 6.97059 85.4178 10.8571C84.9664 6.94876 82.3872 4.89633 79.0987 4.89633C77.0354 4.89633 75.7673 5.26752 73.7899 6.25006C73.7899 6.25006 57.9278 14.0012 51.7807 17.0144C51.007 17.3856 50.1472 17.5166 48.8577 17.5166C46.8803 17.5166 45.2683 15.5733 45.2253 13.5427C45.1823 11.6868 46.9233 9.65622 48.9221 9.65622C51.3509 9.65622 52.4255 10.9226 52.4255 12.2545C52.4255 13.8702 51.7807 14.5034 50.6631 14.5034C49.8893 14.5034 49.5454 14.1323 49.5454 13.5646C49.5454 12.189 51.3724 12.5602 51.3724 12.5602C51.2219 11.8833 50.5341 11.3156 49.6744 11.6213C49.5669 11.1191 49.309 10.6388 48.8791 10.2676C48.5352 10.6388 48.2558 11.0536 48.1484 11.6213C47.0952 11.2938 46.5794 11.7305 46.3644 12.6694C46.7728 12.4728 47.1382 12.4728 47.5036 12.5383C47.0952 14.0231 47.74 16.272 50.2547 16.272C52.7479 16.272 54.8328 14.5253 54.3169 11.2283C54.6823 12.0143 55.4346 12.4073 56.2728 12.4947C56.0364 11.9052 56.0149 11.2283 56.0149 11.2283C56.6812 11.6213 57.2615 12.1453 58.5726 12.1235C58.2932 11.5121 57.7989 10.9444 58.1213 10.1584C60.507 11.3811 63.774 9.87456 64.5478 6.03172C62.9358 7.42911 61.1733 8.12781 59.4324 8.12781C53.7796 8.12781 52.8339 6.53391 48.9221 6.53391C47.3101 6.53391 45.5477 7.36361 44.3441 9.02302C44.0431 7.9313 43.5058 7.23261 42.775 6.83959C41.7434 7.62562 41.4425 8.12781 41.3565 9.43787C40.6042 7.97497 38.9922 6.49024 36.4775 6.49024C32.6087 6.49024 30.9967 8.10598 26.6336 8.10598C24.2048 8.10598 21.1313 6.09722 21.1313 6.09722C21.4752 9.65622 24.7422 11.4248 27.3429 10.4204C27.4288 10.9881 27.2999 11.5121 26.8915 11.9488C27.6223 12.2108 28.439 11.796 29.1698 11.2501C29.4062 11.6868 29.2558 12.0143 29.1268 12.7349C29.8791 12.6694 30.6528 12.2108 31.4051 11.1191C30.5883 14.3288 32.7807 16.2939 35.0804 16.2939C36.8214 16.2939 38.068 15.0493 38.068 13.8484C38.068 13.4554 37.9176 12.8877 37.6811 12.5602C38.154 12.3418 38.7988 12.451 39.2716 12.6912C39.0352 11.796 38.5194 11.2501 37.4447 11.6431C37.3802 10.9663 37.1653 10.4204 36.7139 10.0492C36.2411 10.4204 35.9617 10.9881 35.9832 11.6431C34.973 11.141 34.4141 11.7086 33.9628 12.5165C33.9628 12.5165 35.9832 12.0143 35.9832 13.3026C35.9832 13.8921 35.7897 14.4379 34.93 14.4379C34.1777 14.4379 33.146 13.7829 33.232 12.2545C33.2965 10.7261 34.2637 9.48154 36.6709 9.48154C38.8848 9.48154 39.9809 11.2938 40.0454 13.6956C40.1099 15.8572 38.9707 17.4729 36.7784 17.4729C33.8553 17.4729 27.2354 13.1934 24.6347 13.1934C22.6788 13.1934 21.6041 14.962 21.6041 16.7087C21.6041 17.8004 22.12 18.783 22.6358 19.5472C22.0985 20.2895 21.6041 21.2939 21.6041 22.3856C21.6041 24.1324 22.7003 25.901 24.6347 25.901C27.2354 25.901 33.8768 21.6214 36.7784 21.6214C38.9707 21.6214 40.1099 23.2372 40.0454 25.3988C39.9809 27.7787 38.8633 29.6128 36.6709 29.6128C34.2637 29.6128 33.2965 28.3682 33.232 26.8398C33.1675 25.3114 34.1992 24.6564 34.93 24.6564C35.7897 24.6564 35.9832 25.2023 35.9832 25.7918C35.9832 27.1018 33.9628 26.5778 33.9628 26.5778C34.4141 27.3857 34.9945 27.9316 35.9832 27.4512C35.9617 28.1062 36.2411 28.6739 36.7139 29.0451C37.1438 28.6739 37.3802 28.1281 37.4447 27.4512C38.5194 27.8442 39.0352 27.2984 39.2716 26.4032C38.7988 26.6433 38.154 26.7525 37.6811 26.5342C37.9176 26.2066 38.068 25.6389 38.068 25.2459C38.068 24.045 36.8214 22.8005 35.0804 22.8005C32.7807 22.8005 30.5668 24.7656 31.4051 27.9752C30.6528 26.8617 29.8791 26.425 29.1268 26.3595C29.2772 27.0582 29.4062 27.3857 29.1698 27.8442C28.439 27.2984 27.6223 26.8835 26.8915 27.1455C27.2999 27.5822 27.4288 28.1062 27.3429 28.6739C24.7422 27.6695 21.4967 29.4381 21.1313 32.9971C21.1313 32.9971 24.2263 30.9884 26.6336 30.9884C30.9967 30.9884 32.6087 32.6041 36.4775 32.6041C38.9922 32.6041 40.6042 31.1194 41.3565 29.6565C41.4425 30.9665 41.7434 31.4687 42.775 32.2548C43.5058 31.8399 44.0431 31.1412 44.3441 30.0713C45.5477 31.7307 47.2886 32.5604 48.9221 32.5604C52.8554 32.5604 53.8011 30.9665 59.4324 30.9665C61.1733 30.9665 62.9143 31.6434 64.5478 33.0626C63.774 29.2198 60.507 27.7132 58.1213 28.9359C57.7989 28.1499 58.3147 27.5822 58.5726 26.9708C57.2615 26.949 56.6812 27.473 56.0149 27.866C56.0149 27.866 56.0579 27.211 56.2728 26.5997C55.4346 26.687 54.6823 27.08 54.3169 27.866C54.8328 24.5691 52.7479 22.8223 50.2547 22.8223C47.74 22.8223 47.0952 25.0713 47.5036 26.556C47.1597 26.6215 46.7728 26.6215 46.3644 26.425C46.5794 27.3639 47.0952 27.8005 48.1484 27.473C48.2343 28.0189 48.5138 28.4556 48.8791 28.8268C49.2875 28.4556 49.5454 27.9752 49.6744 27.473C50.5341 27.8005 51.2219 27.2329 51.3724 26.5342C51.3724 26.5342 49.5454 26.9272 49.5454 25.5298C49.5454 24.9839 49.8893 24.5909 50.6631 24.5909C51.7807 24.5909 52.4255 25.2241 52.4255 26.8398C52.4255 28.1499 51.3509 29.4381 48.9221 29.4381C46.9233 29.4381 45.1823 27.4075 45.2253 25.5516C45.2683 23.521 46.8803 21.5778 48.8577 21.5778C50.1258 21.5778 51.007 21.7088 51.7807 22.08C57.9278 25.0931 73.7899 32.8443 73.7899 32.8443C75.7458 33.805 77.0354 34.198 79.0987 34.198C82.3872 34.198 84.9664 32.1237 85.4178 28.2372C85.8691 32.1456 88.4483 34.198 91.7368 34.198C93.7787 34.198 95.0683 33.8268 97.0456 32.8443C97.0456 32.8443 112.908 25.0931 119.055 22.08C119.829 21.7088 120.688 21.5778 121.978 21.5778C123.955 21.5778 125.567 23.521 125.61 25.5516C125.653 27.4075 123.912 29.4381 121.913 29.4381C119.485 29.4381 118.41 28.1717 118.41 26.8398C118.41 25.2241 119.055 24.5909 120.172 24.5909C120.946 24.5909 121.29 24.9621 121.29 25.5298C121.29 26.9053 119.463 26.5342 119.463 26.5342C119.614 27.211 120.301 27.7787 121.161 27.473C121.269 27.9752 121.527 28.4556 121.956 28.8268C122.3 28.4556 122.58 28.0407 122.687 27.473C123.74 27.8005 124.256 27.3639 124.471 26.425C124.063 26.6215 123.697 26.6215 123.332 26.556C123.74 25.0713 123.096 22.8223 120.581 22.8223C118.088 22.8223 116.003 24.5691 116.519 27.866C116.153 27.08 115.401 26.687 114.563 26.5997C114.799 27.1892 114.821 27.866 114.821 27.866C114.154 27.473 113.574 26.949 112.263 26.9708C112.542 27.5822 113.037 28.1499 112.714 28.9359C110.329 27.7132 107.062 29.2198 106.288 33.0626C107.9 31.6652 109.662 30.9665 111.403 30.9665C117.056 30.9665 118.002 32.5604 121.913 32.5604C123.525 32.5604 125.288 31.7307 126.491 30.0713C126.792 31.163 127.33 31.8617 128.06 32.2548C128.791 31.8399 129.329 31.1412 129.629 30.0713C130.833 31.7307 132.574 32.5604 134.208 32.5604C138.141 32.5604 139.087 30.9665 144.718 30.9665C146.459 30.9665 148.2 31.6434 149.833 33.0626C149.059 29.2198 145.792 27.7132 143.407 28.9359C143.084 28.1499 143.6 27.5822 143.858 26.9708C142.547 26.949 141.967 27.473 141.3 27.866C141.3 27.866 141.343 27.211 141.558 26.5997C140.72 26.687 139.968 27.08 139.602 27.866C140.118 24.5691 138.033 22.8223 135.54 22.8223C133.025 22.8223 132.381 25.0713 132.789 26.556C132.445 26.6215 132.058 26.6215 131.65 26.425C131.865 27.3639 132.381 27.8005 133.434 27.473C133.52 28.0189 133.799 28.4556 134.165 28.8268C134.573 28.4556 134.831 27.9752 134.96 27.473C135.82 27.8005 136.507 27.2329 136.658 26.5342C136.658 26.5342 134.831 26.9272 134.831 25.5298C134.831 24.9839 135.175 24.5909 135.949 24.5909C137.066 24.5909 137.711 25.2241 137.711 26.8398C137.711 28.1499 136.636 29.4381 134.208 29.4381C132.209 29.4381 130.468 27.4075 130.511 25.5516C130.554 23.521 132.166 21.5778 134.143 21.5778C135.411 21.5778 136.292 21.7088 137.066 22.08C143.213 25.0931 159.075 32.8443 159.075 32.8443C161.031 33.805 162.321 34.198 164.384 34.198C167.673 34.198 170.252 32.1237 170.703 28.2372C171.155 32.1456 173.734 34.198 177.022 34.198C179.064 34.198 180.354 33.8268 182.331 32.8443C182.331 32.8443 198.193 25.0931 204.34 22.08C205.114 21.7088 205.974 21.5778 207.263 21.5778C209.241 21.5778 210.853 23.521 210.896 25.5516C210.939 27.4075 209.198 29.4381 207.199 29.4381C204.77 29.4381 203.695 28.1717 203.695 26.8398C203.695 25.2241 204.34 24.5909 205.458 24.5909C206.232 24.5909 206.576 24.9621 206.576 25.5298C206.576 26.9053 204.749 26.5342 204.749 26.5342C204.899 27.211 205.587 27.7787 206.447 27.473C206.554 27.9752 206.812 28.4556 207.242 28.8268C207.586 28.4556 207.865 28.0407 207.973 27.473C209.026 27.8005 209.542 27.3639 209.757 26.425C209.348 26.6215 208.983 26.6215 208.617 26.556C209.026 25.0713 208.381 22.8223 205.866 22.8223C203.373 22.8223 201.288 24.5691 201.804 27.866C201.439 27.08 200.686 26.687 199.848 26.5997C200.085 27.1892 200.106 27.866 200.106 27.866C199.44 27.473 198.859 26.949 197.548 26.9708C197.828 27.5822 198.322 28.1499 198 28.9359C195.614 27.7132 192.347 29.2198 191.573 33.0626C193.185 31.6652 194.948 30.9665 196.689 30.9665C202.341 30.9665 203.287 32.5604 207.199 32.5604C208.811 32.5604 210.573 31.7307 211.777 30.0713C212.078 31.163 212.615 31.8617 213.346 32.2548C214.378 31.4687 214.679 30.9665 214.764 29.6565C215.517 31.1194 217.129 32.6041 219.643 32.6041C223.512 32.6041 225.124 30.9884 229.487 30.9884C231.916 30.9884 234.99 32.9971 234.99 32.9971C234.624 29.4381 231.379 27.6695 228.778 28.6739ZM231.637 16.4467C232.604 17.2327 230.734 19.5035 230.67 19.5908C230.734 19.6563 232.582 21.9489 231.637 22.735C230.455 23.6957 225.791 21.0101 222.373 19.5908C225.791 18.1716 230.476 15.486 231.637 16.4467ZM24.5917 22.7131C23.6245 21.9271 25.4944 19.6563 25.5589 19.569C25.4944 19.5035 23.646 17.2109 24.5917 16.4249C25.7738 15.4641 30.4379 18.1498 33.8553 19.569C30.4379 20.9882 25.7523 23.6739 24.5917 22.7131ZM42.947 23.9577C42.904 24.0887 42.861 24.2197 42.818 24.3507C42.3452 22.2765 41.5714 20.5297 39.9809 19.569C41.5714 18.6083 42.3452 16.8615 42.818 14.7873C42.861 14.9183 42.904 15.0493 42.947 15.1803C43.2049 17.4729 44.9459 19.0886 45.8271 19.569C44.9459 20.0494 43.2264 21.6651 42.947 23.9577ZM78.8623 31.294C77.7232 31.294 76.6485 31.0102 75.6598 30.5298C70.9528 28.2809 55.9504 21.0974 52.7909 19.569C55.9289 18.0406 70.9313 10.8571 75.6598 8.60817C76.67 8.12781 77.7232 7.84397 78.8623 7.84397C81.7424 7.84397 82.7526 10.5296 82.7526 12.058C82.7526 13.8921 81.377 15.748 79.6791 15.748C78.6044 15.748 77.9381 15.1585 77.9381 14.2851C77.9381 12.2108 79.6576 12.3418 80.7537 12.7567C80.1949 11.4685 79.1632 10.7261 78.11 10.9226C78.0026 10.2021 77.6802 9.50338 76.9709 8.87018C76.3476 9.37237 75.8747 9.98373 75.8532 10.9226C74.1983 10.5078 73.489 11.6431 73.1021 12.7567C74.3272 12.4073 75.7243 12.1672 75.7243 14.2851C75.7243 15.8135 75.9822 17.0362 76.9709 17.7349C75.6598 17.7786 70.4799 17.9096 70.4799 17.9096C68.5455 17.9969 68.5885 15.2676 69.1688 13.5209C66.9335 14.1759 65.7084 15.5297 66.0308 18.6301C65.7299 17.8659 65.0206 17.0799 63.6665 17.0799C61.8396 17.0799 59.8192 18.5865 59.2174 19.569C59.8192 20.5515 61.8396 22.0581 63.6665 22.0581C65.0206 22.0581 65.7084 21.2502 66.0308 20.5079C65.7299 23.6302 66.9335 24.9621 69.1688 25.6171C68.5885 23.8704 68.524 21.1411 70.4799 21.2284C70.4799 21.2284 75.6598 21.3594 76.9709 21.4031C75.9822 22.1018 75.7243 23.3245 75.7243 24.8529C75.7243 26.9708 74.3272 26.7307 73.1021 26.3813C73.489 27.4949 74.1983 28.6084 75.8532 28.2154C75.8747 29.1543 76.3476 29.7656 76.9709 30.2678C77.6802 29.6346 78.0241 28.9359 78.11 28.2154C79.1847 28.4119 80.1949 27.6695 80.7537 26.3813C79.6576 26.7962 77.9381 26.9272 77.9381 24.8529C77.9381 23.9795 78.5829 23.39 79.6791 23.39C81.3985 23.39 82.7526 25.2459 82.7526 27.08C82.7526 28.6084 81.7424 31.294 78.8623 31.294ZM85.5037 25.9883C85.1598 23.4337 83.5908 20.6826 80.8397 19.569C83.5908 18.4773 85.1598 15.7043 85.5037 13.1497C85.8476 15.7043 87.4166 18.4555 90.1678 19.569C87.3951 20.6826 85.8261 23.4555 85.5037 25.9883ZM95.3477 30.5298C94.3375 31.0102 93.2843 31.294 92.1452 31.294C89.2651 31.294 88.2549 28.6084 88.2549 27.08C88.2549 25.2459 89.6304 23.39 91.3284 23.39C92.4031 23.39 93.0694 23.9795 93.0694 24.8529C93.0694 26.9272 91.3499 26.7962 90.2538 26.3813C90.8126 27.6695 91.8443 28.4119 92.8974 28.2154C93.0049 28.9359 93.3273 29.6346 94.0366 30.2678C94.6599 29.7656 95.1327 29.1543 95.1542 28.2154C96.8092 28.6303 97.5185 27.4949 97.9054 26.3813C96.6803 26.7307 95.2832 26.9708 95.2832 24.8529C95.2832 23.3245 95.0253 22.1018 94.0366 21.4031C95.3477 21.3594 100.528 21.2284 100.528 21.2284C102.462 21.1411 102.419 23.8704 101.839 25.6171C104.074 24.9621 105.299 23.6084 104.977 20.5079C105.278 21.2721 105.987 22.0581 107.341 22.0581C109.168 22.0581 111.188 20.5515 111.79 19.569C111.188 18.5865 109.168 17.0799 107.341 17.0799C105.987 17.0799 105.299 17.8878 104.977 18.6301C105.278 15.5078 104.074 14.1759 101.839 13.5209C102.419 15.2676 102.483 17.9969 100.528 17.9096C100.528 17.9096 95.3477 17.7786 94.0366 17.7349C95.0253 17.0362 95.2832 15.8135 95.2832 14.2851C95.2832 12.1672 96.6803 12.4073 97.9054 12.7567C97.5185 11.6431 96.8092 10.5296 95.1542 10.9226C95.1327 9.98373 94.6599 9.37237 94.0366 8.87018C93.3273 9.50338 92.9834 10.2021 92.8974 10.9226C91.8228 10.7261 90.8126 11.4685 90.2538 12.7567C91.3499 12.3418 93.0694 12.2108 93.0694 14.2851C93.0694 15.1585 92.4246 15.748 91.3284 15.748C89.609 15.748 88.2549 13.8921 88.2549 12.058C88.2549 10.5296 89.2651 7.84397 92.1452 7.84397C93.2843 7.84397 94.359 8.12781 95.3477 8.60817C100.055 10.8571 115.057 18.0406 118.217 19.569C115.079 21.1192 100.076 28.3027 95.3477 30.5298ZM128.189 23.9577C128.168 24.0232 128.146 24.0887 128.125 24.176C128.103 24.1105 128.082 24.0232 128.06 23.9577C127.803 21.6651 126.062 20.0494 125.18 19.569C126.062 19.0886 127.803 17.4947 128.06 15.1803C128.082 15.1148 128.103 15.0493 128.125 14.962C128.146 15.0275 128.168 15.1148 128.189 15.1803C128.447 17.4729 130.188 19.0886 131.07 19.569C130.188 20.0494 128.447 21.6651 128.189 23.9577ZM164.083 31.294C162.944 31.294 161.869 31.0102 160.881 30.5298C156.174 28.2809 141.171 21.0974 138.012 19.569C141.15 18.0406 156.152 10.8571 160.881 8.60817C161.891 8.12781 162.944 7.84397 164.083 7.84397C166.963 7.84397 167.974 10.5296 167.974 12.058C167.974 13.8921 166.598 15.748 164.9 15.748C163.825 15.748 163.159 15.1585 163.159 14.2851C163.159 12.2108 164.879 12.3418 165.975 12.7567C165.416 11.4685 164.384 10.7261 163.331 10.9226C163.224 10.2021 162.901 9.50338 162.192 8.87018C161.569 9.37237 161.096 9.98373 161.074 10.9226C159.419 10.5078 158.71 11.6431 158.323 12.7567C159.548 12.4073 160.945 12.1672 160.945 14.2851C160.945 15.8135 161.203 17.0362 162.192 17.7349C160.881 17.7786 155.701 17.9096 155.701 17.9096C153.766 17.9969 153.809 15.2676 154.39 13.5209C152.154 14.1759 150.929 15.5297 151.252 18.6301C150.951 17.8659 150.242 17.0799 148.887 17.0799C147.061 17.0799 145.04 18.5865 144.438 19.569C145.04 20.5515 147.061 22.0581 148.887 22.0581C150.242 22.0581 150.929 21.2502 151.252 20.5079C150.951 23.6302 152.154 24.9621 154.39 25.6171C153.809 23.8704 153.745 21.1411 155.701 21.2284C155.701 21.2284 160.881 21.3594 162.192 21.4031C161.203 22.1018 160.945 23.3245 160.945 24.8529C160.945 26.9708 159.548 26.7307 158.323 26.3813C158.71 27.4949 159.419 28.6084 161.074 28.2154C161.096 29.1543 161.569 29.7656 162.192 30.2678C162.901 29.6346 163.245 28.9359 163.331 28.2154C164.406 28.4119 165.416 27.6695 165.975 26.3813C164.879 26.7962 163.159 26.9272 163.159 24.8529C163.159 23.9795 163.804 23.39 164.9 23.39C166.619 23.39 167.974 25.2459 167.974 27.08C167.974 28.6084 166.963 31.294 164.083 31.294ZM170.725 25.9883C170.381 23.4337 168.812 20.6826 166.061 19.569C168.812 18.4773 170.381 15.7043 170.725 13.1497C171.069 15.7043 172.638 18.4555 175.389 19.569C172.638 20.6826 171.069 23.4555 170.725 25.9883ZM180.59 30.5298C179.58 31.0102 178.527 31.294 177.388 31.294C174.508 31.294 173.497 28.6084 173.497 27.08C173.497 25.2459 174.873 23.39 176.571 23.39C177.646 23.39 178.312 23.9795 178.312 24.8529C178.312 26.9272 176.592 26.7962 175.496 26.3813C176.055 27.6695 177.087 28.4119 178.14 28.2154C178.247 28.9359 178.57 29.6346 179.279 30.2678C179.902 29.7656 180.375 29.1543 180.397 28.2154C182.052 28.6303 182.761 27.4949 183.148 26.3813C181.923 26.7307 180.526 26.9708 180.526 24.8529C180.526 23.3245 180.268 22.1018 179.279 21.4031C180.59 21.3594 185.77 21.2284 185.77 21.2284C187.704 21.1411 187.661 23.8704 187.081 25.6171C189.316 24.9621 190.542 23.6084 190.219 20.5079C190.52 21.2721 191.229 22.0581 192.583 22.0581C194.41 22.0581 196.431 20.5515 197.033 19.569C196.431 18.5865 194.41 17.0799 192.583 17.0799C191.229 17.0799 190.542 17.8878 190.219 18.6301C190.52 15.5078 189.316 14.1759 187.081 13.5209C187.661 15.2676 187.726 17.9969 185.77 17.9096C185.77 17.9096 180.59 17.7786 179.279 17.7349C180.268 17.0362 180.526 15.8135 180.526 14.2851C180.526 12.1672 181.923 12.4073 183.148 12.7567C182.761 11.6431 182.052 10.5296 180.397 10.9226C180.375 9.98373 179.902 9.37237 179.279 8.87018C178.57 9.50338 178.226 10.2021 178.14 10.9226C177.065 10.7261 176.055 11.4685 175.496 12.7567C176.592 12.3418 178.312 12.2108 178.312 14.2851C178.312 15.1585 177.667 15.748 176.571 15.748C174.851 15.748 173.497 13.8921 173.497 12.058C173.497 10.5296 174.508 7.84397 177.388 7.84397C178.527 7.84397 179.601 8.12781 180.59 8.60817C185.297 10.8571 200.299 18.0406 203.459 19.569C200.299 21.1192 185.297 28.3027 180.59 30.5298ZM213.41 24.3726C213.367 24.2416 213.324 24.1105 213.281 23.9795C213.002 21.6651 211.283 20.0494 210.401 19.5908C211.283 19.1105 213.024 17.5166 213.281 15.2021C213.324 15.0711 213.367 14.9401 213.41 14.8091C213.883 16.8834 214.657 18.6301 216.248 19.5908C214.657 20.5515 213.883 22.2983 213.41 24.3726Z" fill="#FFF4D7"/>
<path d="M68.7605 15.9227L65.7299 15.5515C65.644 15.5297 65.5365 15.5078 65.4505 15.4642L61.0014 12.6039C60.8509 12.4947 60.6575 12.4729 60.4856 12.5165L58.0998 13.1934C57.7989 13.2807 57.4765 13.1279 57.3475 12.844L56.7672 11.6432L56.7027 11.534L56.6598 11.4466L52.2536 3.56445C52.0602 3.23694 51.6518 3.12777 51.3509 3.34611L48.0194 5.52954C47.869 5.61688 47.697 5.66055 47.5466 5.61688L47.1812 5.55138C46.8373 5.48588 46.6009 5.13653 46.6654 4.78718L46.6869 4.63434C46.7513 4.26315 46.4934 3.9138 46.128 3.87014L42.8396 3.45528C42.5602 3.41161 42.3452 3.21511 42.2807 2.93126L41.9798 1.51203C41.9368 1.29368 41.7864 1.11901 41.5715 1.03167L39.0352 0.0491272C38.8848 -0.0163758 38.7343 -0.0163758 38.5839 0.0491272L25.6019 4.74351C25.1291 4.91818 25.0216 5.55138 25.43 5.87889L26.1608 6.46842C26.5476 6.7741 26.4617 7.4073 25.9888 7.60381L24.3983 8.237C24.2693 8.28067 24.1404 8.38984 24.0759 8.52085L23.4096 9.6999C23.2377 10.0056 23.3236 10.3768 23.6031 10.5733L24.4198 11.141C24.9141 11.4685 24.7422 12.2545 24.1404 12.3419L13.9741 13.8048C13.8451 13.8266 13.7161 13.8048 13.6087 13.7393L7.86995 10.9445C7.67651 10.8571 7.46158 10.8571 7.28964 10.9663L1.76586 13.9358C1.6154 14.0231 1.48644 14.1541 1.44346 14.3288L0.0248975 19.3725C-0.0395824 19.5909 0.0248975 19.8529 0.175351 20.0057L4.98985 25.0058C5.20478 25.2241 5.52718 25.2678 5.7851 25.0931L7.52606 23.9796C7.65502 23.8922 7.82697 23.8704 7.97742 23.8922L10.2342 24.2852C10.5566 24.3507 10.7716 24.6128 10.7716 24.9403L10.7501 27.9534C10.7501 28.2591 10.5351 28.5211 10.2342 28.5866L7.18217 29.198C6.7523 29.2853 6.51588 29.7875 6.7523 30.1805L9.9763 35.7483C10.1053 35.9884 10.3847 36.0976 10.6426 36.0539L12.62 35.7046C12.7704 35.6828 12.9424 35.7046 13.0713 35.7919L14.9198 36.971C15.3066 37.2112 15.801 36.9928 15.887 36.5561L17.5419 28.3683C17.5849 28.1499 17.7354 27.9752 17.9288 27.8879L23.1302 25.6171C23.4956 25.4643 23.9255 25.6826 24.0114 26.0756L24.7207 29.46C24.7422 29.5473 24.7852 29.6346 24.8282 29.722L26.4402 31.9273C26.5476 32.0801 26.7196 32.1674 26.913 32.1893L29.6427 32.3858C29.7501 32.3858 29.8576 32.4294 29.9436 32.4949L33.361 34.6784C33.4685 34.7439 33.5545 34.8531 33.5974 34.9622L34.2637 36.4906C34.3282 36.6435 34.4572 36.7745 34.6291 36.84L36.9504 37.7352L37.4662 37.9535C37.7456 38.0627 38.0466 37.9754 38.2185 37.7352L38.6699 37.0802C38.7128 37.0147 38.7773 36.9492 38.8418 36.9055L41.8294 34.8967C41.8939 34.8531 41.9583 34.8312 42.0443 34.8094L43.8927 34.3727C43.9787 34.3509 44.0647 34.3509 44.1292 34.3727L45.9561 34.6565C46.1495 34.6784 46.343 34.6347 46.4934 34.4819L47.826 33.2373C47.9765 33.0845 48.1914 33.0408 48.3848 33.0845L50.1688 33.4557L57.0466 35.0496C57.369 35.1151 57.6914 34.9404 57.7989 34.6129L58.4437 32.6478C58.4867 32.5168 58.4867 32.3639 58.4437 32.2111L57.498 29.4818C57.369 29.0888 57.627 28.6521 58.0353 28.6084L60.8939 28.2591C61.3238 28.2154 61.5817 27.7351 61.4098 27.342C61.3453 27.1674 61.3238 26.9927 61.4098 26.818L62.6134 23.8922C62.7209 23.652 62.9358 23.4992 63.1937 23.4774L66.0093 23.4119C66.2243 23.4119 66.4177 23.3027 66.5252 23.1062L69.7492 18.1498C69.8781 17.9533 69.8996 17.7131 69.7922 17.5166L69.2333 16.272C69.1689 16.0974 68.9754 15.9445 68.7605 15.9227Z" fill="#057BAF"/>
<path d="M65.644 19.7437C65.3646 19.7437 65.1066 19.8747 64.9347 20.0494L48.5568 14.0231L58.3577 16.2065C58.4222 16.6869 58.8306 17.0799 59.3249 17.0799C59.8623 17.0799 60.3136 16.6214 60.3136 16.0755C60.3136 15.5297 59.8623 15.0711 59.3249 15.0711C59.024 15.0711 58.7661 15.2022 58.5942 15.4205L45.6767 12.5384C45.6552 12.2545 45.6122 11.9707 45.5262 11.7087L51.2005 9.6999C51.3724 9.91825 51.6518 10.0711 51.9527 10.0711C52.4901 10.0711 52.9414 9.61256 52.9414 9.06671C52.9414 8.52085 52.4901 8.06233 51.9527 8.06233C51.4584 8.06233 51.0715 8.41168 50.9855 8.89203L45.1823 10.9445C44.559 9.85274 43.4199 9.13221 42.0873 9.13221C41.9154 9.13221 41.7434 9.15404 41.5715 9.17588L38.8848 3.60812C39.0353 3.43345 39.1427 3.19327 39.1427 2.93126C39.1427 2.3854 38.6914 1.92688 38.154 1.92688C37.6167 1.92688 37.1653 2.3854 37.1653 2.93126C37.1653 3.47712 37.5952 3.9138 38.1325 3.93564L40.7547 9.37239C40.6687 9.39422 40.6043 9.43789 40.5398 9.48156L39.1642 8.01866C39.2287 7.88765 39.2502 7.75665 39.2502 7.60381C39.2502 7.05795 38.7988 6.59943 38.2615 6.59943C37.7242 6.59943 37.2728 7.05795 37.2728 7.60381C37.2728 8.14966 37.7242 8.60819 38.2615 8.60819C38.369 8.60819 38.4549 8.58635 38.5409 8.56452L39.8305 9.94008C39.5081 10.2021 39.2502 10.5078 39.0353 10.879L30.2445 8.43351C30.18 7.95316 29.7716 7.58197 29.2773 7.58197C28.74 7.58197 28.2886 8.04049 28.2886 8.58635C28.2886 9.13221 28.74 9.59073 29.2773 9.59073C29.5782 9.59073 29.8576 9.43789 30.0296 9.21955L38.6914 11.6213C38.6269 11.8397 38.5624 12.0798 38.5409 12.3419L7.26815 15.9009C7.0962 15.6388 6.79529 15.4423 6.4514 15.4423C5.91407 15.4423 5.46271 15.9009 5.46271 16.4467C5.46271 16.9926 5.91407 17.4511 6.4514 17.4511C6.90276 17.4511 7.28964 17.1454 7.39711 16.7087L33.275 13.7611L22.12 16.0319C21.9481 15.748 21.6472 15.5515 21.2818 15.5515C20.7444 15.5515 20.2931 16.01 20.2931 16.5559C20.2931 17.1017 20.7444 17.5603 21.2818 17.5603C21.7116 17.5603 22.0985 17.2546 22.2275 16.8616L34.8226 14.3069L10.2987 21.949C10.1268 21.7961 9.89033 21.687 9.63241 21.687C9.09508 21.687 8.64372 22.1455 8.64372 22.6913C8.64372 23.2372 9.09508 23.6957 9.63241 23.6957C10.1697 23.6957 10.5996 23.259 10.6211 22.7132L38.7558 13.9358C38.7773 13.9794 38.7988 14.0231 38.7988 14.0668L10.1053 30.8574C9.95481 30.77 9.78286 30.7045 9.61092 30.7045C9.07358 30.7045 8.62222 31.1631 8.62222 31.7089C8.62222 32.2548 9.07358 32.7133 9.61092 32.7133C10.1482 32.7133 10.5996 32.2548 10.5996 31.7089C10.5996 31.6434 10.5996 31.5997 10.5781 31.5342L39.1642 14.7873C39.3362 15.0275 39.5081 15.2458 39.723 15.4423L30.5239 27.5604C30.4379 27.5386 30.352 27.5167 30.266 27.5167C29.7287 27.5167 29.2773 27.9752 29.2773 28.5211C29.2773 29.067 29.7287 29.5255 30.266 29.5255C30.8033 29.5255 31.2547 29.067 31.2547 28.5211C31.2547 28.3683 31.2117 28.2154 31.1472 28.0844L40.3678 15.9445C40.5398 16.0537 40.7332 16.141 40.9482 16.2065L36.0477 31.2941C35.5748 31.3596 35.2094 31.7744 35.2094 32.2766C35.2094 32.8225 35.6608 33.281 36.1981 33.281C36.7355 33.281 37.1868 32.8225 37.1868 32.2766C37.1868 31.9709 37.0579 31.7089 36.8429 31.5124L41.3135 17.7568L38.5624 33.805C38.154 33.936 37.8531 34.3072 37.8531 34.7657C37.8531 35.3116 38.3045 35.7701 38.8418 35.7701C39.3791 35.7701 39.8305 35.3116 39.8305 34.7657C39.8305 34.4164 39.6371 34.0889 39.3577 33.9142L42.3667 16.403C42.4742 16.403 42.5602 16.3812 42.6676 16.3812L44.0217 29.9185C43.7423 30.0932 43.5489 30.3988 43.5489 30.77C43.5489 31.3159 44.0002 31.7744 44.5375 31.7744C45.0749 31.7744 45.5262 31.3159 45.5262 30.77C45.5262 30.3115 45.2253 29.9403 44.8384 29.8093L43.4844 16.1847L44.8599 20.5952C44.688 20.7699 44.5805 21.0319 44.5805 21.2939C44.5805 21.8398 45.0319 22.2983 45.5692 22.2983C46.1066 22.2983 46.5579 21.8398 46.5579 21.2939C46.5579 20.7699 46.1495 20.3332 45.6337 20.2896L44.2796 16.0755L53.0274 32.0583C52.8984 32.2329 52.8125 32.4513 52.8125 32.6696C52.8125 33.2155 53.2638 33.674 53.8012 33.674C54.3385 33.674 54.7898 33.2155 54.7898 32.6696C54.7898 32.1238 54.3385 31.6652 53.8012 31.6652C53.7797 31.6652 53.7582 31.6652 53.7582 31.6652L45.7842 17.1017L53.9946 28.0844C53.9086 28.2373 53.8656 28.3901 53.8656 28.5648C53.8656 29.1106 54.317 29.5691 54.8543 29.5691C55.3917 29.5691 55.843 29.1106 55.843 28.5648C55.843 28.0189 55.3917 27.5604 54.8543 27.5604C54.7898 27.5604 54.7254 27.5604 54.6609 27.5822L45.0964 14.7655C45.3113 14.4598 45.4832 14.1104 45.5907 13.7174L64.7198 20.7699C64.7627 21.2721 65.1926 21.687 65.687 21.687C66.2243 21.687 66.6756 21.2284 66.6756 20.6826C66.6327 20.1804 66.1813 19.7437 65.644 19.7437Z" fill="white"/>
<path d="M78.1101 22.0145V27.5604H74.8646V12.0798H82.0004C83.0321 12.0798 83.9348 12.2982 84.7301 12.713C85.5038 13.1279 86.1056 13.7174 86.514 14.4816C86.9224 15.2458 87.1373 16.1192 87.1373 17.0581C87.1373 18.3245 86.8149 19.3507 86.1701 20.1367C85.5253 20.9446 84.7301 21.4468 83.8058 21.6433L87.2233 27.5385H83.5049L80.5174 21.9926L78.1101 22.0145ZM83.0966 15.5297C82.6452 15.1366 82.1079 14.9183 81.4416 14.9183H78.0456V19.1978H81.4631C82.1079 19.1978 82.6667 19.0013 83.1181 18.5865C83.5694 18.1934 83.7843 17.6694 83.7843 17.0581C83.7843 16.4249 83.5694 15.9227 83.1395 15.5297H83.0966Z" fill="#057BAF"/>
<path d="M102.634 12.058V14.8965H95.0897V18.259H102.462V21.0974H95.0897V24.7001H102.634V27.5604H91.8442V12.058H102.634Z" fill="#057BAF"/>
<path d="M107.771 15.7262C108.502 14.5253 109.49 13.5864 110.715 12.9314C111.941 12.2764 113.316 11.9489 114.799 11.9489C116.282 11.9489 117.55 12.2545 118.582 12.8877C119.657 13.5209 120.495 14.3506 121.118 15.355L118.432 16.8397C118.045 16.2721 117.55 15.7917 116.905 15.4205C116.261 15.0493 115.573 14.8528 114.821 14.8528C113.896 14.8528 113.058 15.0712 112.349 15.5078C111.618 15.9664 111.038 16.5559 110.629 17.3201C110.221 18.0843 110.006 18.9577 110.006 19.8966C110.006 20.8573 110.221 21.7088 110.629 22.473C111.038 23.2372 111.618 23.8486 112.349 24.2853C113.058 24.7219 113.896 24.9403 114.821 24.9403C115.465 24.9403 116.11 24.8311 116.691 24.5909C117.292 24.3508 117.765 24.0887 118.131 23.7612V21.8835H114.068V19.045H121.333V24.9621C120.516 25.901 119.571 26.5997 118.496 27.1237C117.4 27.6259 116.175 27.8879 114.842 27.8879C113.338 27.8879 111.962 27.5604 110.758 26.8835C109.533 26.2285 108.545 25.2678 107.814 24.0232C107.083 22.8005 106.718 21.4031 106.718 19.831C106.718 18.2153 107.083 16.8179 107.814 15.5952L107.771 15.7262Z" fill="#057BAF"/>
<path d="M129.458 12.058V27.5386H126.212V12.058H129.458Z" fill="#057BAF"/>
<path d="M134.981 15.7044C135.669 14.5035 136.615 13.5428 137.84 12.8441C139.044 12.1454 140.398 11.796 141.924 11.796C143.45 11.796 144.825 12.1454 146.029 12.8441C147.254 13.5428 148.2 14.4816 148.888 15.7044C149.575 16.9053 149.919 18.2808 149.919 19.8092C149.919 21.3376 149.575 22.7132 148.888 23.9141C148.2 25.115 147.254 26.0757 146.05 26.7744C144.825 27.4731 143.45 27.8224 141.945 27.8224C140.441 27.8224 139.087 27.4731 137.883 26.7744C136.679 26.0757 135.734 25.1368 135.046 23.9141C134.358 22.7132 134.014 21.3376 134.014 19.8092C134.014 18.2808 134.358 16.9053 135.046 15.7044H134.981ZM145.943 17.2983C145.556 16.5341 144.997 15.9445 144.309 15.486C143.6 15.0275 142.783 14.8092 141.902 14.8092C140.999 14.8092 140.183 15.0275 139.495 15.4642C138.786 15.9227 138.227 16.5122 137.861 17.2764C137.475 18.0406 137.281 18.8922 137.281 19.8529C137.281 20.8136 137.475 21.6651 137.861 22.4293C138.248 23.1935 138.786 23.8049 139.495 24.2416C140.204 24.6783 140.999 24.8966 141.902 24.8966C142.805 24.8966 143.622 24.6783 144.331 24.2198C145.04 23.7831 145.578 23.1935 145.964 22.4075C146.351 21.6433 146.545 20.7918 146.545 19.8311C146.545 18.8703 146.351 18.0188 145.964 17.2546L145.943 17.2983Z" fill="#057BAF"/>
<path d="M157.764 27.5386H154.519V12.058H157.85L164.922 22.08V12.058H168.167V27.5386H165.029L157.764 17.1454V27.5386Z" fill="#057BAF"/>
<path d="M171.842 12.058H175.539L179.344 18.2808L183.083 12.058H186.78L180.956 21.2066V27.5386H177.71V21.2066L171.842 12.058Z" fill="#057BAF"/>
<path d="M188.543 24.5909C188.908 24.2197 189.338 24.0232 189.854 24.0232C190.348 24.0232 190.8 24.2197 191.165 24.5909C191.53 24.9621 191.724 25.3988 191.724 25.9228C191.724 26.425 191.53 26.8835 191.165 27.2547C190.8 27.6259 190.37 27.8224 189.854 27.8224C189.359 27.8224 188.908 27.6259 188.543 27.2547C188.177 26.8835 187.984 26.4468 187.984 25.9228C188.005 25.4206 188.177 24.9621 188.543 24.5909Z" fill="#057BAF"/>
<path d="M199.805 22.8005V27.5604H196.56V12.058H199.805V18.9795L205.2 12.058H209.198L203.137 19.3288L209.606 27.5386H205.608L200.987 21.3376L199.805 22.8005Z" fill="#057BAF"/>
<path d="M220.03 14.962H212.83V12.058H224.286V14.7L217.086 24.6346H224.436V27.5386H212.83V24.8748L220.03 14.962Z" fill="#057BAF"/>
<path d="M42.1948 16.4249C44.2128 16.4249 45.8487 14.763 45.8487 12.7131C45.8487 10.6631 44.2128 9.00122 42.1948 9.00122C40.1768 9.00122 38.541 10.6631 38.541 12.7131C38.541 14.763 40.1768 16.4249 42.1948 16.4249Z" fill="#FEC50C"/>
<path d="M9.63239 33.019C10.2853 33.019 10.8145 32.4813 10.8145 31.8181C10.8145 31.1548 10.2853 30.6172 9.63239 30.6172C8.97951 30.6172 8.45026 31.1548 8.45026 31.8181C8.45026 32.4813 8.97951 33.019 9.63239 33.019Z" fill="#FEC50C"/>
<path d="M30.266 29.7438C30.9189 29.7438 31.4481 29.2062 31.4481 28.5429C31.4481 27.8797 30.9189 27.342 30.266 27.342C29.6131 27.342 29.0839 27.8797 29.0839 28.5429C29.0839 29.2062 29.6131 29.7438 30.266 29.7438Z" fill="#FEC50C"/>
<path d="M36.0692 33.4557C36.722 33.4557 37.2513 32.918 37.2513 32.2548C37.2513 31.5915 36.722 31.0539 36.0692 31.0539C35.4163 31.0539 34.887 31.5915 34.887 32.2548C34.887 32.918 35.4163 33.4557 36.0692 33.4557Z" fill="#FEC50C"/>
<path d="M38.8633 35.8574C39.5162 35.8574 40.0454 35.3198 40.0454 34.6565C40.0454 33.9933 39.5162 33.4557 38.8633 33.4557C38.2104 33.4557 37.6812 33.9933 37.6812 34.6565C37.6812 35.3198 38.2104 35.8574 38.8633 35.8574Z" fill="#FEC50C"/>
<path d="M44.4515 31.9272C45.1044 31.9272 45.6337 31.3896 45.6337 30.7263C45.6337 30.0631 45.1044 29.5255 44.4515 29.5255C43.7987 29.5255 43.2694 30.0631 43.2694 30.7263C43.2694 31.3896 43.7987 31.9272 44.4515 31.9272Z" fill="#FEC50C"/>
<path d="M53.6937 33.8923C54.3466 33.8923 54.8759 33.3547 54.8759 32.6915C54.8759 32.0282 54.3466 31.4906 53.6937 31.4906C53.0409 31.4906 52.5116 32.0282 52.5116 32.6915C52.5116 33.3547 53.0409 33.8923 53.6937 33.8923Z" fill="#FEC50C"/>
<path d="M54.7683 29.7438C55.4212 29.7438 55.9504 29.2062 55.9504 28.5429C55.9504 27.8797 55.4212 27.342 54.7683 27.342C54.1154 27.342 53.5862 27.8797 53.5862 28.5429C53.5862 29.2062 54.1154 29.7438 54.7683 29.7438Z" fill="#FEC50C"/>
<path d="M65.515 21.8835C66.1679 21.8835 66.6971 21.3458 66.6971 20.6826C66.6971 20.0193 66.1679 19.4817 65.515 19.4817C64.8621 19.4817 64.3329 20.0193 64.3329 20.6826C64.3329 21.3458 64.8621 21.8835 65.515 21.8835Z" fill="#FEC50C"/>
<path d="M59.282 17.0799C59.9349 17.0799 60.4641 16.5423 60.4641 15.879C60.4641 15.2158 59.9349 14.6781 59.282 14.6781C58.6291 14.6781 58.0999 15.2158 58.0999 15.879C58.0999 16.5423 58.6291 17.0799 59.282 17.0799Z" fill="#FEC50C"/>
<path d="M51.9742 10.0929C52.6271 10.0929 53.1564 9.55525 53.1564 8.89202C53.1564 8.22879 52.6271 7.69113 51.9742 7.69113C51.3214 7.69113 50.7921 8.22879 50.7921 8.89202C50.7921 9.55525 51.3214 10.0929 51.9742 10.0929Z" fill="#FEC50C"/>
<path d="M45.5262 22.5385C46.1791 22.5385 46.7083 22.0008 46.7083 21.3376C46.7083 20.6744 46.1791 20.1367 45.5262 20.1367C44.8733 20.1367 44.3441 20.6744 44.3441 21.3376C44.3441 22.0008 44.8733 22.5385 45.5262 22.5385Z" fill="#FEC50C"/>
<path d="M38.2185 8.78288C38.8714 8.78288 39.4006 8.24522 39.4006 7.58199C39.4006 6.91876 38.8714 6.3811 38.2185 6.3811C37.5656 6.3811 37.0364 6.91876 37.0364 7.58199C37.0364 8.24522 37.5656 8.78288 38.2185 8.78288Z" fill="#FEC50C"/>
<path d="M38.2185 4.19764C38.8714 4.19764 39.4006 3.65999 39.4006 2.99676C39.4006 2.33352 38.8714 1.79587 38.2185 1.79587C37.5656 1.79587 37.0364 2.33352 37.0364 2.99676C37.0364 3.65999 37.5656 4.19764 38.2185 4.19764Z" fill="#FEC50C"/>
<path d="M29.1913 9.87459C29.8442 9.87459 30.3734 9.33693 30.3734 8.6737C30.3734 8.01046 29.8442 7.47281 29.1913 7.47281C28.5384 7.47281 28.0092 8.01046 28.0092 8.6737C28.0092 9.33693 28.5384 9.87459 29.1913 9.87459Z" fill="#FEC50C"/>
<path d="M6.62336 17.5166C7.27623 17.5166 7.80549 16.9789 7.80549 16.3157C7.80549 15.6525 7.27623 15.1148 6.62336 15.1148C5.97048 15.1148 5.44122 15.6525 5.44122 16.3157C5.44122 16.9789 5.97048 17.5166 6.62336 17.5166Z" fill="#FEC50C"/>
<path d="M21.2388 17.735C21.8916 17.735 22.4209 17.1973 22.4209 16.5341C22.4209 15.8708 21.8916 15.3332 21.2388 15.3332C20.5859 15.3332 20.0566 15.8708 20.0566 16.5341C20.0566 17.1973 20.5859 17.735 21.2388 17.735Z" fill="#FEC50C"/>
<path d="M9.63239 23.8486C10.2853 23.8486 10.8145 23.3109 10.8145 22.6477C10.8145 21.9844 10.2853 21.4468 9.63239 21.4468C8.97951 21.4468 8.45026 21.9844 8.45026 22.6477C8.45026 23.3109 8.97951 23.8486 9.63239 23.8486Z" fill="#FEC50C"/>
<path d="M240.32 34.1544C240.75 33.7832 241.137 33.3902 241.481 32.9317C241.61 32.757 241.545 32.7352 241.373 32.7133C240.535 32.6915 239.697 32.7351 238.859 32.6696C237.719 32.5823 236.731 32.1675 235.849 31.4469C235.269 30.9884 234.775 30.4207 234.388 29.7875C233.851 28.9141 233.679 27.9316 233.7 26.9272C233.722 26.0538 233.937 25.2241 234.323 24.4599C235.033 23.0625 236.107 22.1455 237.676 21.9272C238.407 21.8398 239.116 21.8835 239.804 22.1673C240.728 22.5385 241.266 23.259 241.459 24.2416C241.567 24.7438 241.567 25.2678 241.502 25.77C241.459 26.032 241.438 26.0538 241.223 25.901C240.535 25.4643 239.804 25.246 239.009 25.4425C238.149 25.639 237.569 26.1848 237.311 27.0582C237.075 27.8661 237.247 28.5866 237.784 29.2198C238.106 29.6128 238.515 29.8749 238.966 30.0714C239.847 30.4644 240.771 30.7482 241.739 30.7046C242.77 30.6609 243.673 30.3115 244.447 29.591C245.607 28.5211 246.166 27.1456 246.36 25.5953C246.489 24.5254 246.166 23.5647 245.629 22.6477C245.414 22.2765 245.414 22.2547 245.844 22.211C247.155 22.08 248.208 22.6914 248.724 23.9359C248.745 24.0014 248.745 24.0888 248.831 24.0888C248.917 24.0888 248.917 23.9796 248.939 23.9359C249.283 23.1062 249.863 22.473 250.529 21.9053C251.647 20.9664 252.98 20.5079 254.398 20.2896C254.592 20.2677 254.785 20.2241 255 20.1586C254.785 20.1149 254.592 20.0931 254.377 20.0494C253.109 19.8747 251.926 19.4599 250.895 18.7175C250.057 18.1061 249.347 17.3638 248.939 16.3812C248.917 16.3376 248.917 16.2502 248.831 16.2502C248.745 16.2721 248.745 16.3594 248.702 16.4249C248.38 17.1891 247.864 17.7131 247.069 17.997C246.618 18.1498 246.166 18.1498 245.715 18.1061C245.435 18.0843 245.414 18.0188 245.564 17.7786C245.994 17.0581 246.317 16.2721 246.381 15.3987C246.424 14.7 246.274 14.045 246.08 13.3899C245.801 12.4947 245.371 11.6869 244.726 11.01C243.952 10.1803 243.007 9.67809 241.889 9.63443C240.492 9.56892 239.202 9.94011 238.085 10.7916C236.688 11.8397 236.989 14.0668 238.579 14.7437C239.503 15.1367 240.363 14.9183 241.18 14.438C241.459 14.2851 241.459 14.2851 241.502 14.5908C241.567 15.1803 241.545 15.748 241.373 16.3157C241.051 17.4511 240.277 18.1061 239.181 18.3245C238.235 18.521 237.311 18.4555 236.43 18.0406C235.742 17.7131 235.183 17.2546 234.732 16.6214C233.7 15.1148 233.399 13.4554 233.829 11.665C234.108 10.5733 234.796 9.72176 235.613 9.00123C236.86 7.88768 238.343 7.53833 239.955 7.60383C240.363 7.62567 240.771 7.60383 241.201 7.60383C241.309 7.60383 241.416 7.60383 241.545 7.53833C241.266 7.14531 240.986 6.79596 240.642 6.49028C239.89 5.81342 239.073 5.20206 238.149 4.76537C237.633 4.52519 237.096 4.32868 236.559 4.17584C232.819 8.78289 230.949 14.1105 230.949 20.1586C230.949 26.1848 232.819 31.5124 236.559 36.1413C236.946 36.054 237.311 35.923 237.676 35.7701C238.665 35.3989 239.546 34.8531 240.32 34.1544Z" fill="#FEC50C"/>
</svg>
