<svg width="40" height="40" viewBox="0 0 40 40" fill="none" xmlns="http://www.w3.org/2000/svg">
<path d="M40 20C40 31.0468 31.0468 40 20 40C8.95323 40 0 31.0468 0 20C0 8.95323 8.95323 0 20 0C31.0468 0 40 8.95323 40 20Z" fill="#61A8DE"/>
<path d="M28.0624 11.0023L7.57242 18.9756C6.90426 19.2428 6.94881 20.1782 7.61696 20.401L12.8285 21.9154L14.7885 28.0624C15.0112 28.686 15.8129 28.9088 16.2584 28.4188L18.931 25.6571L24.2317 29.5324C24.8998 30.0223 25.7907 29.666 25.9689 28.8642L29.4432 12.1604C29.666 11.3586 28.8642 10.6905 28.0624 11.0023ZM25.4789 14.6994L15.9911 23.1181C15.902 23.2072 15.8575 23.2963 15.8129 23.4299L15.4566 26.7261C15.4566 26.8152 15.2784 26.8598 15.2784 26.7261L13.764 21.8709C13.6749 21.6482 13.764 21.4255 13.9867 21.2918L25.2116 14.3431C25.4789 14.1649 25.7461 14.5212 25.4789 14.6994Z" fill="white"/>
</svg>
