<svg width="40" height="40" viewBox="0 0 40 40" fill="none" xmlns="http://www.w3.org/2000/svg">
<path d="M40 20C40 31.0468 31.0468 40 20 40C8.95323 40 0 31.0468 0 20C0 8.95323 8.95323 0 20 0C31.0468 0 40 8.95323 40 20Z" fill="#4D76A1"/>
<path fill-rule="evenodd" clip-rule="evenodd" d="M19.2428 28.775H20.8018C20.8018 28.775 21.2918 28.7304 21.5145 28.4632C21.7372 28.2404 21.7372 27.795 21.7372 27.795C21.7372 27.795 21.6927 25.7015 22.6726 25.3897C23.6526 25.0779 24.8553 27.4387 26.1916 28.3295C27.1715 28.9977 27.9288 28.8641 27.9288 28.8641L31.4477 28.8195C31.4477 28.8195 33.274 28.6859 32.4276 27.2605C32.3386 27.1269 31.9377 26.1914 29.7996 24.2315C27.617 22.1825 27.8842 22.5389 30.5568 18.9754C32.1604 16.8373 32.8285 15.501 32.6058 14.9665C32.4276 14.432 31.225 14.5656 31.225 14.5656L27.2606 14.6102C27.2606 14.6102 26.9488 14.5656 26.7706 14.6992C26.5479 14.8329 26.4143 15.1447 26.4143 15.1447C26.4143 15.1447 25.7907 16.7928 24.9443 18.2182C23.2072 21.2026 22.4945 21.3808 22.1827 21.158C21.5145 20.7126 21.6927 19.4208 21.6927 18.4854C21.6927 15.5901 22.1381 14.3874 20.8464 14.0756C20.4009 13.9865 20.0891 13.8975 19.0201 13.8975C17.5947 13.8975 16.4366 13.8975 15.7239 14.2538C15.2784 14.4765 14.9221 14.9665 15.1448 15.011C15.4121 15.0556 15.9911 15.1892 16.3029 15.5901C16.7038 16.1246 16.7038 17.3718 16.7038 17.3718C16.7038 17.3718 16.9265 20.7571 16.1693 21.2026C15.6348 21.5144 14.9221 20.8908 13.3185 18.1736C12.5167 16.7928 11.8931 15.2338 11.8931 15.2338C11.8931 15.2338 11.7595 14.9665 11.5813 14.7883C11.3141 14.6102 10.9577 14.5656 10.9577 14.5656L7.21607 14.6102C7.21607 14.6102 6.637 14.6102 6.45883 14.8774C6.28065 15.1001 6.45883 15.5456 6.45883 15.5456C6.45883 15.5456 9.39869 22.4053 12.7395 25.8796C15.7684 28.9531 19.2428 28.775 19.2428 28.775Z" fill="white"/>
</svg>
